<svg width="20" height="20" viewBox="0 0 20 20" fill="none" xmlns="http://www.w3.org/2000/svg">
<circle cx="10" cy="10" r="10" fill="#69A509"/>
<path d="M10.0009 4.88086C9.82413 4.88086 9.68086 5.02413 9.68086 5.20086V9.68086H5.20086C5.02413 9.68086 4.88086 9.82413 4.88086 10.0009C4.88086 10.1776 5.02413 10.3209 5.20086 10.3209H9.68086V14.8009C9.68086 14.9776 9.82413 15.1209 10.0009 15.1209C10.1776 15.1209 10.3209 14.9776 10.3209 14.8009V10.3209H14.8009C14.9776 10.3209 15.1209 10.1776 15.1209 10.0009C15.1209 9.82413 14.9776 9.68086 14.8009 9.68086H10.3209V5.20086C10.3209 5.02413 10.1776 4.88086 10.0009 4.88086Z" fill="white"/>
<path fill-rule="evenodd" clip-rule="evenodd" d="M10.0005 9.92051C9.97772 9.95078 9.95078 9.97772 9.92051 10.0005C9.95078 10.0232 9.97772 10.0502 10.0005 10.0804C10.0232 10.0502 10.0502 10.0232 10.0804 10.0005C10.0502 9.97772 10.0232 9.95078 10.0005 9.92051ZM9.28047 5.20047C9.28047 4.80282 9.60282 4.48047 10.0005 4.48047C10.3981 4.48047 10.7205 4.80282 10.7205 5.20047V9.28047H14.8005C15.1981 9.28047 15.5205 9.60282 15.5205 10.0005C15.5205 10.3981 15.1981 10.7205 14.8005 10.7205H10.7205V14.8005C10.7205 15.1981 10.3981 15.5205 10.0005 15.5205C9.60282 15.5205 9.28047 15.1981 9.28047 14.8005V10.7205H5.20047C4.80282 10.7205 4.48047 10.3981 4.48047 10.0005C4.48047 9.60282 4.80282 9.28047 5.20047 9.28047H9.28047V5.20047Z" fill="white"/>
</svg>
