<svg width="16" height="16" viewBox="0 0 16 16" fill="none" xmlns="http://www.w3.org/2000/svg">
<path fill-rule="evenodd" clip-rule="evenodd" d="M10.6666 0.666504C11.0348 0.666504 11.3333 0.964981 11.3333 1.33317V1.99984H12.6666C13.7712 1.99984 14.6666 2.89527 14.6666 3.99984V6.6665V13.3332C14.6666 14.4377 13.7712 15.3332 12.6666 15.3332H3.33325C2.22868 15.3332 1.33325 14.4377 1.33325 13.3332V6.6665V3.99984C1.33325 2.89527 2.22868 1.99984 3.33325 1.99984H4.66658V1.33317C4.66658 0.964981 4.96506 0.666504 5.33325 0.666504C5.70144 0.666504 5.99992 0.964981 5.99992 1.33317V1.99984H9.99992V1.33317C9.99992 0.964981 10.2984 0.666504 10.6666 0.666504ZM4.66658 3.33317V3.99984C4.66658 4.36803 4.96506 4.6665 5.33325 4.6665C5.70144 4.6665 5.99992 4.36803 5.99992 3.99984V3.33317H9.99992V3.99984C9.99992 4.36803 10.2984 4.6665 10.6666 4.6665C11.0348 4.6665 11.3333 4.36803 11.3333 3.99984V3.33317H12.6666C13.0348 3.33317 13.3333 3.63165 13.3333 3.99984V5.99984H2.66659V3.99984C2.66659 3.63165 2.96506 3.33317 3.33325 3.33317H4.66658ZM13.3333 7.33317V13.3332C13.3333 13.7014 13.0348 13.9998 12.6666 13.9998H3.33325C2.96506 13.9998 2.66659 13.7014 2.66659 13.3332V7.33317H13.3333Z" fill="white"/>
</svg>
