<svg width="11" height="12" viewBox="0 0 11 12" fill="none" xmlns="http://www.w3.org/2000/svg">
<path fill-rule="evenodd" clip-rule="evenodd" d="M7.82996 0.5C8.1061 0.5 8.32996 0.723858 8.32996 1V1.5H9.32996C10.1584 1.5 10.83 2.17157 10.83 3V5V10C10.83 10.8284 10.1584 11.5 9.32996 11.5H2.32996C1.50153 11.5 0.829956 10.8284 0.829956 10V5V3C0.829956 2.17157 1.50153 1.5 2.32996 1.5H3.32996V1C3.32996 0.723858 3.55381 0.5 3.82996 0.5C4.1061 0.5 4.32996 0.723858 4.32996 1V1.5H7.32996V1C7.32996 0.723858 7.55381 0.5 7.82996 0.5ZM3.32996 2.5V3C3.32996 3.27614 3.55381 3.5 3.82996 3.5C4.1061 3.5 4.32996 3.27614 4.32996 3V2.5H7.32996V3C7.32996 3.27614 7.55381 3.5 7.82996 3.5C8.1061 3.5 8.32996 3.27614 8.32996 3V2.5H9.32996C9.6061 2.5 9.82996 2.72386 9.82996 3V4.5H1.82996V3C1.82996 2.72386 2.05381 2.5 2.32996 2.5H3.32996ZM9.82996 5.5V10C9.82996 10.2761 9.6061 10.5 9.32996 10.5H2.32996C2.05381 10.5 1.82996 10.2761 1.82996 10V5.5H9.82996Z" fill="#82898E"/>
</svg>
