<svg width="24" height="24" viewBox="0 0 24 24" fill="none" xmlns="http://www.w3.org/2000/svg">
<path fill-rule="evenodd" clip-rule="evenodd" d="M4.4276 4.12877C4.76516 3.7912 5.223 3.60156 5.70039 3.60156C6.17778 3.60156 6.63562 3.7912 6.97318 4.12877C7.31075 4.46634 7.50039 4.92417 7.50039 5.40156C7.50039 5.87895 7.31075 6.33679 6.97318 6.67435C6.63562 7.01192 6.17778 7.20156 5.70039 7.20156C5.223 7.20156 4.76516 7.01192 4.4276 6.67435C4.09003 6.33679 3.90039 5.87895 3.90039 5.40156C3.90039 4.92417 4.09003 4.46634 4.4276 4.12877ZM19.6004 11.6415C19.176 11.6415 18.7691 11.8059 18.469 12.0984C18.169 12.391 18.0004 12.7878 18.0004 13.2015C18.0004 13.6152 18.169 14.012 18.469 14.3046C18.7691 14.5971 19.176 14.7615 19.6004 14.7615C20.0247 14.7615 20.4317 14.5971 20.7318 14.3046C21.0318 14.012 21.2004 13.6152 21.2004 13.2015C21.2004 12.7878 21.0318 12.391 20.7318 12.0984C20.4317 11.8059 20.0247 11.6415 19.6004 11.6415ZM19.6004 17.8815C19.176 17.8815 18.7691 18.0459 18.469 18.3384C18.169 18.631 18.0004 19.0278 18.0004 19.4415C18.0004 19.8552 18.169 20.252 18.469 20.5446C18.7691 20.8371 19.176 21.0015 19.6004 21.0015C20.0247 21.0015 20.4317 20.8371 20.7318 20.5446C21.0318 20.252 21.2004 19.8552 21.2004 19.4415C21.2004 19.0278 21.0318 18.631 20.7318 18.3384C20.4317 18.0459 20.0247 17.8815 19.6004 17.8815ZM6.40047 12.6016V9.21142C6.40197 9.10561 6.38238 9.00056 6.34285 8.90237C6.30332 8.80418 6.24463 8.71482 6.1702 8.63946C6.09576 8.56411 6.00707 8.50428 5.90926 8.46343C5.81145 8.42259 5.70649 8.40156 5.60047 8.40156C5.49445 8.40156 5.38949 8.42259 5.29168 8.46343C5.19388 8.50428 5.10518 8.56411 5.03074 8.63946C4.95631 8.71482 4.89762 8.80418 4.85809 8.90237C4.81856 9.00056 4.79897 9.10561 4.80047 9.21142V13.3903C4.80042 13.3941 4.80039 13.3979 4.80039 13.4016C4.80039 13.4054 4.80042 13.4092 4.80047 13.413V19.5917C4.79995 19.6287 4.802 19.6656 4.80659 19.7022C4.80247 19.7351 4.80039 19.7683 4.80039 19.8016C4.80039 19.9077 4.82142 20.0126 4.86226 20.1104C4.9031 20.2082 4.96294 20.2969 5.03829 20.3714C5.11364 20.4458 5.20301 20.5045 5.3012 20.544C5.39939 20.5836 5.50444 20.6031 5.61025 20.6016H15.9905C16.0963 20.6031 16.2014 20.5836 16.2996 20.544C16.3978 20.5045 16.4871 20.4458 16.5625 20.3714C16.6378 20.2969 16.6977 20.2082 16.7385 20.1104C16.7794 20.0126 16.8004 19.9077 16.8004 19.8016C16.8004 19.6956 16.7794 19.5907 16.7385 19.4929C16.6977 19.395 16.6378 19.3063 16.5625 19.2319C16.4871 19.1575 16.3978 19.0988 16.2996 19.0593C16.2014 19.0197 16.0963 19.0001 15.9905 19.0016H6.40047V14.2016H15.9905C16.0963 14.2031 16.2014 14.1836 16.2996 14.144C16.3978 14.1045 16.4871 14.0458 16.5625 13.9714C16.6378 13.8969 16.6977 13.8082 16.7385 13.7104C16.7794 13.6126 16.8004 13.5077 16.8004 13.4016C16.8004 13.2956 16.7794 13.1907 16.7385 13.0929C16.6977 12.995 16.6378 12.9063 16.5625 12.8319C16.4871 12.7575 16.3978 12.6988 16.2996 12.6593C16.2014 12.6197 16.0963 12.6001 15.9905 12.6016H6.40047Z" fill="white"/>
</svg>
