<svg width="72" height="72" viewBox="0 0 72 72" fill="none" xmlns="http://www.w3.org/2000/svg">
<g clip-path="url(#clip0)">
<mask id="path-2-inside-1" fill="white">
<path d="M68.3198 54.143C68.3198 50.2351 65.6829 46.801 61.9076 45.7917L50.1306 42.6435C50.0188 41.5926 49.4581 40.6026 48.5248 39.9804L46.6166 38.7083C46.396 38.5611 46.1404 38.5005 45.8908 38.5172V37.4488C49.6796 34.4965 52.121 29.892 52.121 24.7276V20.7844C52.429 20.8416 52.5936 20.8777 52.6103 20.8816C52.6977 20.9017 52.7858 20.9115 52.8732 20.9115C53.1997 20.9115 53.5162 20.7745 53.7403 20.5262C54.3194 19.8846 54.6132 19.2021 54.6132 18.4973C54.6132 17.5255 54.1174 16.6506 53.1336 15.8775L52.3564 7.32906C52.1678 5.25329 50.6825 3.51894 48.6604 3.01335L37.1903 0.146022C36.4119 -0.048674 35.5887 -0.048674 34.8102 0.146022L23.34 3.01366C21.3179 3.51925 19.8325 5.2536 19.644 7.32937L18.8668 15.8779C17.883 16.6511 17.3873 17.526 17.3873 18.4978C17.3873 19.2021 17.6809 19.8848 18.26 20.5263C18.5438 20.8408 18.9765 20.9771 19.3892 20.8822C19.3982 20.8802 19.5633 20.8435 19.8794 20.7849V24.7279C19.8794 29.8923 22.3209 34.4968 26.1096 37.4492V38.5175C25.86 38.5008 25.6045 38.5614 25.3838 38.7086L23.4756 39.9807C22.5424 40.6028 21.9818 41.5929 21.8698 42.6438L10.0929 45.792C6.31747 46.8011 3.68066 50.2354 3.68066 54.1433V59.4154C3.68066 60.6515 4.14357 61.8017 4.92672 62.6797V67.0939C4.92672 69.7992 7.12772 72.0002 9.83306 72.0002H16.0633H55.9371H62.1674C64.8727 72.0002 67.0737 69.7992 67.0737 67.0939V62.6797C67.8568 61.8017 68.3198 60.6515 68.3198 59.4154V54.143ZM65.9834 54.143V59.4151C65.9834 60.523 65.2772 61.5028 64.2262 61.8531L57.1053 64.2269V60.9519C57.1053 59.5998 57.6319 58.3285 58.5881 57.3725L65.0744 50.8861C65.6543 51.8459 65.9834 52.9647 65.9834 54.143ZM46.1175 41.1834L47.2289 41.9244C47.7832 42.294 47.9768 43.0214 47.6795 43.6167C45.4632 48.0522 43.9427 51.0939 43.1315 52.715C41.128 50.9533 39.3019 49.8723 38.0493 49.2516L46.1175 41.1834ZM20.9988 18.2303L21.0912 17.2139C21.7383 16.86 22.6676 16.4729 23.9858 16.0963C27.1792 15.1839 31.4459 14.6814 36.0002 14.6814C40.5545 14.6814 44.8212 15.1839 48.0147 16.0963C49.3328 16.4729 50.2621 16.86 50.9093 17.2139L51.0016 18.2303C48.4346 17.8534 43.5152 17.3293 36.0002 17.3293C28.4853 17.3293 23.5658 17.8534 20.9988 18.2303ZM21.9707 7.54073C22.0695 6.45355 22.8475 5.54502 23.9068 5.28008L35.377 2.41244C35.7846 2.31057 36.2161 2.31057 36.6237 2.41244L48.0938 5.28008C49.1531 5.54487 49.9311 6.4534 50.03 7.54073L50.6652 14.527C50.0637 14.2864 49.3942 14.0606 48.6567 13.8498C45.5395 12.9592 41.4961 12.4371 37.1685 12.3572V6.0369C37.1685 5.39176 36.6457 4.86873 36.0004 4.86873C35.3551 4.86873 34.8322 5.39176 34.8322 6.0369V12.3572C30.5046 12.4373 26.4613 12.9594 23.3442 13.8498C22.6067 14.0606 21.9371 14.2864 21.3355 14.5272L21.9707 7.54073ZM22.2157 24.7276V20.4259C24.8776 20.0806 29.44 19.6655 36.0002 19.6655C42.5596 19.6655 47.1227 20.0806 49.7847 20.4257V24.7274C49.7847 32.3282 43.601 38.5119 36.0002 38.5119C28.3994 38.5119 22.2157 32.3285 22.2157 24.7276ZM36.0002 40.8484C38.7283 40.8484 41.2997 40.1663 43.5544 38.9651V40.4423L36.0002 47.9965L28.446 40.4423V38.9651C30.7007 40.1663 33.2723 40.8484 36.0002 40.8484ZM24.7717 41.9244L25.883 41.1834L33.9514 49.2516C32.6988 49.8723 30.8727 50.9533 28.8692 52.715C28.058 51.0939 26.5375 48.0522 24.3213 43.6167C24.0238 43.0214 24.2174 42.294 24.7717 41.9244ZM10.6961 48.0487L22.3653 44.9294L27.325 54.8494C27.5512 55.3005 27.7467 55.69 28.3367 55.7858C28.399 55.7959 28.4617 55.8009 28.5239 55.8009C28.8285 55.8009 29.1242 55.6816 29.3446 55.4642C31.494 53.3431 33.5182 52.0976 34.832 51.4277V63.3551C34.832 64.0003 35.3549 64.5233 36.0002 64.5233C36.6455 64.5233 37.1684 64.0003 37.1684 63.3551V51.4279C38.483 52.0981 40.5069 53.3434 42.6559 55.4642C42.8763 55.6816 43.1719 55.8009 43.4765 55.8009C43.5387 55.8009 43.6015 55.7959 43.6638 55.7858C44.2538 55.69 44.4492 55.3005 44.6754 54.8494L49.635 44.9292L61.3042 48.0486C62.1247 48.2679 62.8706 48.6453 63.515 49.1409L56.9358 55.7201C55.5383 57.1174 54.7688 58.9752 54.7688 60.9515V65.8675C54.7688 65.8689 54.7688 65.8703 54.7688 65.8717V69.6633H17.2314V65.8717C17.2314 65.8703 17.2314 65.8689 17.2314 65.8675V60.9515C17.2314 58.9752 16.4618 57.1172 15.0645 55.7201L8.4853 49.1409C9.12966 48.6454 9.87558 48.2682 10.6961 48.0487ZM6.01702 54.143C6.01702 52.9647 6.34629 51.8459 6.92617 50.8861L13.4127 57.3725C14.3687 58.3285 14.8953 59.5998 14.8953 60.9519V64.2269L7.77442 61.8531C6.72337 61.5028 6.01717 60.523 6.01717 59.4151V54.143H6.01702ZM7.26307 67.0936V64.1454L14.8952 66.6896V69.6636H9.83306C8.41614 69.6636 7.26307 68.5107 7.26307 67.0936ZM62.1674 69.6636H57.1053V66.6896L64.7373 64.1454V67.0936C64.7373 68.5107 63.5844 69.6636 62.1674 69.6636Z"/>
</mask>
<path d="M68.3198 54.143C68.3198 50.2351 65.6829 46.801 61.9076 45.7917L50.1306 42.6435C50.0188 41.5926 49.4581 40.6026 48.5248 39.9804L46.6166 38.7083C46.396 38.5611 46.1404 38.5005 45.8908 38.5172V37.4488C49.6796 34.4965 52.121 29.892 52.121 24.7276V20.7844C52.429 20.8416 52.5936 20.8777 52.6103 20.8816C52.6977 20.9017 52.7858 20.9115 52.8732 20.9115C53.1997 20.9115 53.5162 20.7745 53.7403 20.5262C54.3194 19.8846 54.6132 19.2021 54.6132 18.4973C54.6132 17.5255 54.1174 16.6506 53.1336 15.8775L52.3564 7.32906C52.1678 5.25329 50.6825 3.51894 48.6604 3.01335L37.1903 0.146022C36.4119 -0.048674 35.5887 -0.048674 34.8102 0.146022L23.34 3.01366C21.3179 3.51925 19.8325 5.2536 19.644 7.32937L18.8668 15.8779C17.883 16.6511 17.3873 17.526 17.3873 18.4978C17.3873 19.2021 17.6809 19.8848 18.26 20.5263C18.5438 20.8408 18.9765 20.9771 19.3892 20.8822C19.3982 20.8802 19.5633 20.8435 19.8794 20.7849V24.7279C19.8794 29.8923 22.3209 34.4968 26.1096 37.4492V38.5175C25.86 38.5008 25.6045 38.5614 25.3838 38.7086L23.4756 39.9807C22.5424 40.6028 21.9818 41.5929 21.8698 42.6438L10.0929 45.792C6.31747 46.8011 3.68066 50.2354 3.68066 54.1433V59.4154C3.68066 60.6515 4.14357 61.8017 4.92672 62.6797V67.0939C4.92672 69.7992 7.12772 72.0002 9.83306 72.0002H16.0633H55.9371H62.1674C64.8727 72.0002 67.0737 69.7992 67.0737 67.0939V62.6797C67.8568 61.8017 68.3198 60.6515 68.3198 59.4154V54.143ZM65.9834 54.143V59.4151C65.9834 60.523 65.2772 61.5028 64.2262 61.8531L57.1053 64.2269V60.9519C57.1053 59.5998 57.6319 58.3285 58.5881 57.3725L65.0744 50.8861C65.6543 51.8459 65.9834 52.9647 65.9834 54.143ZM46.1175 41.1834L47.2289 41.9244C47.7832 42.294 47.9768 43.0214 47.6795 43.6167C45.4632 48.0522 43.9427 51.0939 43.1315 52.715C41.128 50.9533 39.3019 49.8723 38.0493 49.2516L46.1175 41.1834ZM20.9988 18.2303L21.0912 17.2139C21.7383 16.86 22.6676 16.4729 23.9858 16.0963C27.1792 15.1839 31.4459 14.6814 36.0002 14.6814C40.5545 14.6814 44.8212 15.1839 48.0147 16.0963C49.3328 16.4729 50.2621 16.86 50.9093 17.2139L51.0016 18.2303C48.4346 17.8534 43.5152 17.3293 36.0002 17.3293C28.4853 17.3293 23.5658 17.8534 20.9988 18.2303ZM21.9707 7.54073C22.0695 6.45355 22.8475 5.54502 23.9068 5.28008L35.377 2.41244C35.7846 2.31057 36.2161 2.31057 36.6237 2.41244L48.0938 5.28008C49.1531 5.54487 49.9311 6.4534 50.03 7.54073L50.6652 14.527C50.0637 14.2864 49.3942 14.0606 48.6567 13.8498C45.5395 12.9592 41.4961 12.4371 37.1685 12.3572V6.0369C37.1685 5.39176 36.6457 4.86873 36.0004 4.86873C35.3551 4.86873 34.8322 5.39176 34.8322 6.0369V12.3572C30.5046 12.4373 26.4613 12.9594 23.3442 13.8498C22.6067 14.0606 21.9371 14.2864 21.3355 14.5272L21.9707 7.54073ZM22.2157 24.7276V20.4259C24.8776 20.0806 29.44 19.6655 36.0002 19.6655C42.5596 19.6655 47.1227 20.0806 49.7847 20.4257V24.7274C49.7847 32.3282 43.601 38.5119 36.0002 38.5119C28.3994 38.5119 22.2157 32.3285 22.2157 24.7276ZM36.0002 40.8484C38.7283 40.8484 41.2997 40.1663 43.5544 38.9651V40.4423L36.0002 47.9965L28.446 40.4423V38.9651C30.7007 40.1663 33.2723 40.8484 36.0002 40.8484ZM24.7717 41.9244L25.883 41.1834L33.9514 49.2516C32.6988 49.8723 30.8727 50.9533 28.8692 52.715C28.058 51.0939 26.5375 48.0522 24.3213 43.6167C24.0238 43.0214 24.2174 42.294 24.7717 41.9244ZM10.6961 48.0487L22.3653 44.9294L27.325 54.8494C27.5512 55.3005 27.7467 55.69 28.3367 55.7858C28.399 55.7959 28.4617 55.8009 28.5239 55.8009C28.8285 55.8009 29.1242 55.6816 29.3446 55.4642C31.494 53.3431 33.5182 52.0976 34.832 51.4277V63.3551C34.832 64.0003 35.3549 64.5233 36.0002 64.5233C36.6455 64.5233 37.1684 64.0003 37.1684 63.3551V51.4279C38.483 52.0981 40.5069 53.3434 42.6559 55.4642C42.8763 55.6816 43.1719 55.8009 43.4765 55.8009C43.5387 55.8009 43.6015 55.7959 43.6638 55.7858C44.2538 55.69 44.4492 55.3005 44.6754 54.8494L49.635 44.9292L61.3042 48.0486C62.1247 48.2679 62.8706 48.6453 63.515 49.1409L56.9358 55.7201C55.5383 57.1174 54.7688 58.9752 54.7688 60.9515V65.8675C54.7688 65.8689 54.7688 65.8703 54.7688 65.8717V69.6633H17.2314V65.8717C17.2314 65.8703 17.2314 65.8689 17.2314 65.8675V60.9515C17.2314 58.9752 16.4618 57.1172 15.0645 55.7201L8.4853 49.1409C9.12966 48.6454 9.87558 48.2682 10.6961 48.0487ZM6.01702 54.143C6.01702 52.9647 6.34629 51.8459 6.92617 50.8861L13.4127 57.3725C14.3687 58.3285 14.8953 59.5998 14.8953 60.9519V64.2269L7.77442 61.8531C6.72337 61.5028 6.01717 60.523 6.01717 59.4151V54.143H6.01702ZM7.26307 67.0936V64.1454L14.8952 66.6896V69.6636H9.83306C8.41614 69.6636 7.26307 68.5107 7.26307 67.0936ZM62.1674 69.6636H57.1053V66.6896L64.7373 64.1454V67.0936C64.7373 68.5107 63.5844 69.6636 62.1674 69.6636Z" fill="#82898E" stroke="#82898E" stroke-width="2" mask="url(#path-2-inside-1)"/>
<path d="M27.9571 33.5412C29.0841 34.256 30.5328 34.6184 32.2625 34.6184C33.8095 34.6184 35.0375 34.1461 35.9125 33.2147C35.9438 33.1814 35.9709 33.1465 36.0007 33.1127C36.0306 33.1466 36.0575 33.1814 36.0888 33.2147C36.9637 34.1461 38.1918 34.6184 39.7388 34.6184C41.4683 34.6184 42.917 34.256 44.0442 33.5412C45.0071 32.9306 45.6702 32.0814 45.8635 31.2114C46.0034 30.5816 45.6063 29.9575 44.9766 29.8177C44.3466 29.6773 43.7226 30.0748 43.5829 30.7047C43.5552 30.829 43.3961 31.1037 43.034 31.3896C42.6038 31.4663 42.4312 31.3371 41.8028 30.2784C41.4425 29.6717 41.0341 28.984 40.3748 28.4755C38.8438 27.2942 37.1201 27.4554 36.1095 27.9525C36.0725 27.9707 36.0366 27.99 36.001 28.0095C35.9653 27.9902 35.9295 27.9707 35.8924 27.9525C34.8817 27.4558 33.1582 27.2942 31.6272 28.4755C30.9678 28.9842 30.5596 29.6717 30.1992 30.2784C29.5705 31.3371 29.3981 31.4663 28.9679 31.3896C28.6058 31.1037 28.4466 30.829 28.419 30.7047C28.2792 30.075 27.656 29.6775 27.0253 29.8177C26.3956 29.9575 25.9984 30.5815 26.1384 31.2114C26.331 32.0814 26.9942 32.9305 27.9571 33.5412ZM38.9473 30.3254C39.253 30.5612 39.5155 31.0034 39.7935 31.4713C39.9354 31.7103 40.1002 31.9877 40.2994 32.2649C40.1214 32.276 39.9346 32.2819 39.7387 32.2819C38.8694 32.2819 38.2175 32.0612 37.8015 31.6255C37.319 31.1203 37.2014 30.4041 37.174 30.0315C37.4903 29.8938 38.2295 29.7717 38.9473 30.3254ZM32.2077 31.4715C32.4855 31.0034 32.7481 30.5614 33.0539 30.3254C33.7718 29.7717 34.5107 29.8938 34.827 30.0317C34.7991 30.4021 34.6825 31.1117 34.2098 31.6151C33.7939 32.0578 33.1388 32.2822 32.2625 32.2822C32.0665 32.2822 31.8798 32.2763 31.7016 32.2652C31.9008 31.9878 32.0658 31.7103 32.2077 31.4715Z" fill="#82898E"/>
</g>
<defs>
<clipPath id="clip0">
<rect width="72" height="72" fill="white"/>
</clipPath>
</defs>
</svg>
