<svg width="24" height="24" viewBox="0 0 24 24" fill="none" xmlns="http://www.w3.org/2000/svg">
<path fill-rule="evenodd" clip-rule="evenodd" d="M3.29289 3.29289C3.48043 3.10536 3.73478 3 4 3H13C13.2652 3 13.5196 3.10536 13.7071 3.29289C13.8946 3.48043 14 3.73478 14 4V5C14 5.55228 14.4477 6 15 6C15.5523 6 16 5.55228 16 5V4C16 3.20435 15.6839 2.44129 15.1213 1.87868C14.5587 1.31607 13.7957 1 13 1H4C3.20435 1 2.44129 1.31607 1.87868 1.87868C1.31607 2.44129 1 3.20435 1 4V13C1 13.7957 1.31607 14.5587 1.87868 15.1213C2.44129 15.6839 3.20435 16 4 16H5C5.55228 16 6 15.5523 6 15C6 14.4477 5.55228 14 5 14H4C3.73478 14 3.48043 13.8946 3.29289 13.7071C3.10536 13.5196 3 13.2652 3 13V4C3 3.73478 3.10536 3.48043 3.29289 3.29289ZM9.99999 10.9999C9.99999 10.4476 10.4477 9.9999 11 9.9999H20C20.5523 9.9999 21 10.4476 21 10.9999V19.9999C21 20.5522 20.5523 20.9999 20 20.9999H11C10.4477 20.9999 9.99999 20.5522 9.99999 19.9999V10.9999ZM11 7.9999C9.34314 7.9999 7.99999 9.34305 7.99999 10.9999V19.9999C7.99999 21.6568 9.34314 22.9999 11 22.9999H20C21.6568 22.9999 23 21.6568 23 19.9999V10.9999C23 9.34305 21.6568 7.9999 20 7.9999H11Z" fill="#82898E"/>
</svg>
