<svg width="16" height="16" viewBox="0 0 16 16" fill="none" xmlns="http://www.w3.org/2000/svg">
<circle cx="8" cy="8" r="8" fill="#FF6557"/>
<path d="M4.9162 4.39866C4.81407 4.39869 4.71427 4.42917 4.62955 4.48621C4.54484 4.54326 4.47907 4.62427 4.44064 4.71889C4.40221 4.81351 4.39287 4.91745 4.41382 5.0174C4.43476 5.11736 4.48505 5.2088 4.55823 5.28003L7.27554 7.99734L4.55823 10.7146C4.50896 10.7619 4.46963 10.8186 4.44253 10.8813C4.41543 10.944 4.40111 11.0115 4.40042 11.0798C4.39972 11.1481 4.41266 11.2158 4.43848 11.2791C4.4643 11.3423 4.50247 11.3998 4.55077 11.4481C4.59907 11.4964 4.65652 11.5345 4.71976 11.5603C4.78299 11.5862 4.85075 11.5991 4.91905 11.5984C4.98735 11.5977 5.05482 11.5834 5.11752 11.5563C5.18022 11.5292 5.23688 11.4899 5.28418 11.4406L8.00149 8.72329L10.7188 11.4406C10.7661 11.4899 10.8228 11.5292 10.8855 11.5563C10.9482 11.5834 11.0156 11.5977 11.0839 11.5984C11.1522 11.5991 11.22 11.5862 11.2832 11.5603C11.3465 11.5345 11.4039 11.4964 11.4522 11.4481C11.5005 11.3998 11.5387 11.3423 11.5645 11.2791C11.5903 11.2158 11.6033 11.1481 11.6026 11.0798C11.6019 11.0115 11.5876 10.944 11.5605 10.8813C11.5334 10.8186 11.494 10.7619 11.4447 10.7146L8.72744 7.99734L11.4447 5.28003C11.5189 5.20792 11.5696 5.11508 11.5901 5.01368C11.6106 4.91227 11.6 4.80704 11.5597 4.71176C11.5194 4.61649 11.4512 4.53561 11.3641 4.47974C11.2771 4.42387 11.1752 4.39561 11.0717 4.39866C10.9384 4.40263 10.8118 4.45838 10.7188 4.55408L8.00149 7.27138L5.28418 4.55408C5.23634 4.5049 5.17913 4.46581 5.11592 4.43911C5.05272 4.41242 4.98481 4.39866 4.9162 4.39866Z" fill="white"/>
</svg>
