<svg width="72" height="72" viewBox="0 0 72 72" fill="none" xmlns="http://www.w3.org/2000/svg">
<circle cx="36" cy="36" r="36" fill="#202C3D"/>
<path d="M47.5012 27.35C47.2518 27.3575 47.0151 27.4617 46.8412 27.6407L32.16 42.3219L26.1187 36.2807C26.0303 36.1885 25.9243 36.115 25.8071 36.0643C25.6898 36.0136 25.5636 35.9868 25.4359 35.9855C25.3082 35.9842 25.1815 36.0084 25.0633 36.0567C24.945 36.105 24.8376 36.1764 24.7473 36.2667C24.657 36.357 24.5856 36.4644 24.5373 36.5827C24.489 36.7009 24.4648 36.8276 24.4661 36.9554C24.4674 37.0831 24.4942 37.2093 24.5449 37.3265C24.5955 37.4437 24.6691 37.5497 24.7612 37.6382L31.4812 44.3582C31.6613 44.5381 31.9054 44.6392 32.16 44.6392C32.4145 44.6392 32.6587 44.5381 32.8387 44.3582L48.1987 28.9982C48.3374 28.8633 48.4322 28.6897 48.4706 28.5001C48.5089 28.3105 48.4891 28.1137 48.4137 27.9355C48.3383 27.7574 48.2108 27.6061 48.048 27.5016C47.8852 27.3972 47.6946 27.3443 47.5012 27.35Z" fill="white" stroke="white"/>
</svg>
