<svg width="20" height="20" viewBox="0 0 20 20" fill="none" xmlns="http://www.w3.org/2000/svg">
<path fill-rule="evenodd" clip-rule="evenodd" d="M18.5 10C18.5 14.6944 14.6944 18.5 10 18.5C5.30558 18.5 1.5 14.6944 1.5 10C1.5 5.30558 5.30558 1.5 10 1.5C14.6944 1.5 18.5 5.30558 18.5 10ZM20 10C20 15.5228 15.5228 20 10 20C4.47715 20 0 15.5228 0 10C0 4.47715 4.47715 0 10 0C15.5228 0 20 4.47715 20 10ZM5.1 6.5C4.76863 6.5 4.5 6.76863 4.5 7.1C4.5 7.43137 4.76863 7.7 5.1 7.7H15.6C15.9314 7.7 16.2 7.43137 16.2 7.1C16.2 6.76863 15.9314 6.5 15.6 6.5H5.1ZM5.5 10.1C5.5 9.76863 5.76863 9.5 6.1 9.5H14.1C14.4314 9.5 14.7 9.76863 14.7 10.1C14.7 10.4314 14.4314 10.7 14.1 10.7H6.1C5.76863 10.7 5.5 10.4314 5.5 10.1ZM7.1 12.5C6.76863 12.5 6.5 12.7686 6.5 13.1C6.5 13.4314 6.76863 13.7 7.1 13.7H13.1C13.4314 13.7 13.7 13.4314 13.7 13.1C13.7 12.7686 13.4314 12.5 13.1 12.5H7.1Z" fill="#82898E"/>
<circle cx="16.5" cy="3.5" r="2.5" fill="#EAFC40"/>
</svg>
