<svg width="62" height="62" viewBox="0 0 62 62" fill="none" xmlns="http://www.w3.org/2000/svg">
<rect width="62" height="62" rx="10" fill="#0890E2"/>
<g clip-path="url(#clip0)">
<mask id="path-2-inside-1" fill="white">
<path d="M40.5492 46.7456L39.0545 45.3817L37.9599 36.9315C37.8657 36.2084 37.5103 35.5365 36.9731 35.0498C37.0739 34.7937 37.102 34.5107 37.0464 34.2331C36.9528 33.7646 36.6348 33.372 36.1959 33.1828L32.2176 31.4683C32.2173 31.4681 32.2169 31.468 32.2166 31.4679L32.2127 31.4662C32.2105 31.4652 32.2085 31.4641 32.2063 31.4632L26.7712 29.183L28.4429 24.8441L30.3814 24.7702C30.6858 24.7586 30.9231 24.5025 30.9115 24.1982C30.8998 23.8939 30.6447 23.6577 30.3395 23.6682L27.7501 23.7669L27.7532 21.992L30.9904 21.8205C31.2945 21.8044 31.528 21.5448 31.5119 21.2407C31.4959 20.9367 31.2358 20.7023 30.9321 20.7193L30.2098 20.7575C30.2806 20.6628 30.3541 20.5701 30.4314 20.481C30.7957 20.0622 31.3019 19.807 31.8475 19.7599C32.5742 20.7004 33.915 21.2344 35.1185 21.0164C35.5116 21.3249 35.659 21.8631 35.4581 22.3392L32.2679 29.9015C32.1495 30.1821 32.281 30.5055 32.5616 30.6239C32.836 30.7396 33.1646 30.6143 33.284 30.3301L35.048 26.1484L36.5188 27.1227C36.8529 27.344 37.2381 27.4599 37.6372 27.4599C37.707 27.4599 42.7441 27.2721 42.8205 27.2692C43.3519 27.2495 43.855 27.0066 44.2011 26.6026C44.5474 26.1984 44.7103 25.6634 44.6482 25.1347C44.535 24.1718 43.7188 23.4457 42.7498 23.4457H37.962L36.5658 22.5058C36.7522 21.8497 36.6257 21.1604 36.2498 20.6228C36.287 20.6022 36.3245 20.5827 36.3611 20.5607C37.1593 20.0798 37.7226 19.3167 37.9473 18.4121L38.4196 16.5109C38.8835 14.6433 37.7424 12.7467 35.8759 12.283C34.9717 12.0583 34.034 12.1995 33.2358 12.6804C32.4376 13.1613 31.8743 13.9243 31.6496 14.829L31.1773 16.7302C31.0059 17.4203 31.0542 18.1142 31.2767 18.7385C30.1839 18.9729 29.3668 19.8654 28.8587 20.8289L25.2401 21.0205C24.5683 21.0561 23.9308 21.3318 23.4449 21.7969L20.2384 24.867C19.8357 25.2526 19.6105 25.7719 19.6043 26.3292C19.5982 26.8865 19.8118 27.4106 20.206 27.805C20.6056 28.2049 21.1321 28.4051 21.6588 28.405C22.1809 28.405 22.7033 28.2082 23.1021 27.8142L26.0148 24.9365L27.2435 24.8896L25.5539 29.2752C25.5538 29.2753 25.5538 29.2755 25.5537 29.2757L23.1337 35.2064C22.9131 35.747 23.0363 36.3643 23.4474 36.7789L25.6731 39.0239L17.7187 42.1798V40.1453L22.4102 38.1955C22.6914 38.0786 22.8246 37.7559 22.7077 37.4746C22.5908 37.1934 22.2681 37.0602 21.9869 37.177L17.053 39.2278H14.5646C13.7018 39.2278 13 39.93 13 40.7931V43.8156C13 44.7914 13.7935 45.5853 14.7689 45.5853C15.2651 45.5853 15.7416 45.3748 16.076 45.0078L17.4891 43.4573L26.622 39.8338C26.8599 39.9377 27.1292 39.9757 27.39 39.9417C27.8441 39.8824 28.2353 39.6208 28.4633 39.2238L29.6078 37.2313L31.8162 38.7764C32.0703 38.9541 32.3619 39.0412 32.6516 39.0412C32.9194 39.0412 33.1847 38.9652 33.4178 38.8194L34.772 45.7049V47.8276C34.772 48.9277 35.6665 49.8227 36.7661 49.8227H39.3572C40.3325 49.8227 41.126 49.0288 41.126 48.053C41.126 47.5566 40.9158 47.0801 40.5492 46.7456ZM38.2474 24.5485H42.7498C43.1597 24.5485 43.505 24.8559 43.5529 25.2634C43.5796 25.4907 43.5124 25.7115 43.3636 25.8851C43.215 26.0585 43.0077 26.1586 42.7797 26.1671L37.8942 26.3481L38.2474 24.5485ZM37.1821 24.2501L36.8366 26.0103L35.4843 25.1145L36.1437 23.5512L37.1821 24.2501ZM32.72 15.0949C32.8737 14.476 33.2591 13.954 33.805 13.625C34.3526 13.2951 34.9958 13.2007 35.6101 13.3532C36.9416 13.684 37.7646 15.1476 37.293 16.4717L35.5452 15.4213C35.0108 15.1002 34.3211 15.2044 33.9057 15.6689L33.5255 16.0939C33.4603 16.1668 33.3499 16.1807 33.2684 16.1268L32.5776 15.6682L32.72 15.0949ZM32.2477 16.9961L32.2952 16.8045L32.6584 17.0456C33.1933 17.4007 33.9194 17.3077 34.3473 16.8292L34.7275 16.4042C34.7907 16.3336 34.8957 16.3177 34.9771 16.3666L37.0149 17.5913L36.8771 18.1463C36.5709 19.4014 35.2426 20.2053 33.9869 19.8879C32.7106 19.5708 31.9304 18.2735 32.2477 16.9961ZM26.6473 23.8087L25.7587 23.8426C25.6209 23.8478 25.4902 23.9045 25.3922 24.0014L22.327 27.0297C21.9562 27.3959 21.3546 27.3942 20.9861 27.0254C20.8034 26.8425 20.7043 26.5996 20.7072 26.3413C20.71 26.0831 20.8144 25.8423 21.0012 25.6636L24.2077 22.5936C24.5029 22.311 24.8903 22.1434 25.2986 22.1218L26.6504 22.0502L26.6473 23.8087ZM16.6159 42.7782L15.2609 44.265C15.135 44.4032 14.9557 44.4824 14.7689 44.4824C14.4016 44.4824 14.1028 44.1833 14.1028 43.8156V40.7931C14.1028 40.538 14.3099 40.3306 14.5646 40.3306H16.6159V42.7782ZM27.5069 38.6746C27.4314 38.806 27.3118 38.8397 27.2472 38.8481C27.1826 38.8569 27.0582 38.8547 26.9513 38.7469L24.2305 36.0024C24.1313 35.9023 24.1016 35.7533 24.1548 35.623L26.3643 30.2081L31.2039 32.2384L27.5069 38.6746ZM33.3767 37.3406C33.3751 37.3421 33.3737 37.3436 33.3722 37.3452L32.9035 37.8293C32.7825 37.9543 32.591 37.9726 32.4483 37.8729L30.1592 36.2713L32.2261 32.6729L35.7594 34.1956C35.9124 34.2615 35.9541 34.395 35.9649 34.4493C35.9757 34.5036 35.9885 34.6426 35.873 34.762L35.8494 34.7864C35.8462 34.7895 35.8432 34.7928 35.8401 34.7959L33.3767 37.3406ZM34.3624 37.9079L36.288 35.9189C36.6019 36.2258 36.8092 36.635 36.8663 37.0736L37.9062 45.1013H35.7772L34.3624 37.9079ZM39.3571 48.7199H36.766C36.2745 48.7199 35.8747 48.3196 35.8747 47.8276V46.2039H38.3196L39.8058 47.5601C39.944 47.6862 40.0232 47.8658 40.0232 48.0529C40.0231 48.4207 39.7243 48.7199 39.3571 48.7199ZM46.1576 40.138C43.4876 40.138 41.3153 42.3103 41.3153 44.9804C41.3153 47.6504 43.4876 49.8227 46.1576 49.8227C48.8277 49.8227 51 47.6504 51 44.9804C51 42.3103 48.8277 40.138 46.1576 40.138ZM46.1576 48.7199C44.0957 48.7199 42.4181 47.0424 42.4181 44.9804C42.4181 42.9184 44.0957 41.2408 46.1576 41.2408C48.2196 41.2408 49.8972 42.9184 49.8972 44.9804C49.8972 47.0424 48.2196 48.7199 46.1576 48.7199Z"/>
</mask>
<path d="M40.5492 46.7456L39.0545 45.3817L37.9599 36.9315C37.8657 36.2084 37.5103 35.5365 36.9731 35.0498C37.0739 34.7937 37.102 34.5107 37.0464 34.2331C36.9528 33.7646 36.6348 33.372 36.1959 33.1828L32.2176 31.4683C32.2173 31.4681 32.2169 31.468 32.2166 31.4679L32.2127 31.4662C32.2105 31.4652 32.2085 31.4641 32.2063 31.4632L26.7712 29.183L28.4429 24.8441L30.3814 24.7702C30.6858 24.7586 30.9231 24.5025 30.9115 24.1982C30.8998 23.8939 30.6447 23.6577 30.3395 23.6682L27.7501 23.7669L27.7532 21.992L30.9904 21.8205C31.2945 21.8044 31.528 21.5448 31.5119 21.2407C31.4959 20.9367 31.2358 20.7023 30.9321 20.7193L30.2098 20.7575C30.2806 20.6628 30.3541 20.5701 30.4314 20.481C30.7957 20.0622 31.3019 19.807 31.8475 19.7599C32.5742 20.7004 33.915 21.2344 35.1185 21.0164C35.5116 21.3249 35.659 21.8631 35.4581 22.3392L32.2679 29.9015C32.1495 30.1821 32.281 30.5055 32.5616 30.6239C32.836 30.7396 33.1646 30.6143 33.284 30.3301L35.048 26.1484L36.5188 27.1227C36.8529 27.344 37.2381 27.4599 37.6372 27.4599C37.707 27.4599 42.7441 27.2721 42.8205 27.2692C43.3519 27.2495 43.855 27.0066 44.2011 26.6026C44.5474 26.1984 44.7103 25.6634 44.6482 25.1347C44.535 24.1718 43.7188 23.4457 42.7498 23.4457H37.962L36.5658 22.5058C36.7522 21.8497 36.6257 21.1604 36.2498 20.6228C36.287 20.6022 36.3245 20.5827 36.3611 20.5607C37.1593 20.0798 37.7226 19.3167 37.9473 18.4121L38.4196 16.5109C38.8835 14.6433 37.7424 12.7467 35.8759 12.283C34.9717 12.0583 34.034 12.1995 33.2358 12.6804C32.4376 13.1613 31.8743 13.9243 31.6496 14.829L31.1773 16.7302C31.0059 17.4203 31.0542 18.1142 31.2767 18.7385C30.1839 18.9729 29.3668 19.8654 28.8587 20.8289L25.2401 21.0205C24.5683 21.0561 23.9308 21.3318 23.4449 21.7969L20.2384 24.867C19.8357 25.2526 19.6105 25.7719 19.6043 26.3292C19.5982 26.8865 19.8118 27.4106 20.206 27.805C20.6056 28.2049 21.1321 28.4051 21.6588 28.405C22.1809 28.405 22.7033 28.2082 23.1021 27.8142L26.0148 24.9365L27.2435 24.8896L25.5539 29.2752C25.5538 29.2753 25.5538 29.2755 25.5537 29.2757L23.1337 35.2064C22.9131 35.747 23.0363 36.3643 23.4474 36.7789L25.6731 39.0239L17.7187 42.1798V40.1453L22.4102 38.1955C22.6914 38.0786 22.8246 37.7559 22.7077 37.4746C22.5908 37.1934 22.2681 37.0602 21.9869 37.177L17.053 39.2278H14.5646C13.7018 39.2278 13 39.93 13 40.7931V43.8156C13 44.7914 13.7935 45.5853 14.7689 45.5853C15.2651 45.5853 15.7416 45.3748 16.076 45.0078L17.4891 43.4573L26.622 39.8338C26.8599 39.9377 27.1292 39.9757 27.39 39.9417C27.8441 39.8824 28.2353 39.6208 28.4633 39.2238L29.6078 37.2313L31.8162 38.7764C32.0703 38.9541 32.3619 39.0412 32.6516 39.0412C32.9194 39.0412 33.1847 38.9652 33.4178 38.8194L34.772 45.7049V47.8276C34.772 48.9277 35.6665 49.8227 36.7661 49.8227H39.3572C40.3325 49.8227 41.126 49.0288 41.126 48.053C41.126 47.5566 40.9158 47.0801 40.5492 46.7456ZM38.2474 24.5485H42.7498C43.1597 24.5485 43.505 24.8559 43.5529 25.2634C43.5796 25.4907 43.5124 25.7115 43.3636 25.8851C43.215 26.0585 43.0077 26.1586 42.7797 26.1671L37.8942 26.3481L38.2474 24.5485ZM37.1821 24.2501L36.8366 26.0103L35.4843 25.1145L36.1437 23.5512L37.1821 24.2501ZM32.72 15.0949C32.8737 14.476 33.2591 13.954 33.805 13.625C34.3526 13.2951 34.9958 13.2007 35.6101 13.3532C36.9416 13.684 37.7646 15.1476 37.293 16.4717L35.5452 15.4213C35.0108 15.1002 34.3211 15.2044 33.9057 15.6689L33.5255 16.0939C33.4603 16.1668 33.3499 16.1807 33.2684 16.1268L32.5776 15.6682L32.72 15.0949ZM32.2477 16.9961L32.2952 16.8045L32.6584 17.0456C33.1933 17.4007 33.9194 17.3077 34.3473 16.8292L34.7275 16.4042C34.7907 16.3336 34.8957 16.3177 34.9771 16.3666L37.0149 17.5913L36.8771 18.1463C36.5709 19.4014 35.2426 20.2053 33.9869 19.8879C32.7106 19.5708 31.9304 18.2735 32.2477 16.9961ZM26.6473 23.8087L25.7587 23.8426C25.6209 23.8478 25.4902 23.9045 25.3922 24.0014L22.327 27.0297C21.9562 27.3959 21.3546 27.3942 20.9861 27.0254C20.8034 26.8425 20.7043 26.5996 20.7072 26.3413C20.71 26.0831 20.8144 25.8423 21.0012 25.6636L24.2077 22.5936C24.5029 22.311 24.8903 22.1434 25.2986 22.1218L26.6504 22.0502L26.6473 23.8087ZM16.6159 42.7782L15.2609 44.265C15.135 44.4032 14.9557 44.4824 14.7689 44.4824C14.4016 44.4824 14.1028 44.1833 14.1028 43.8156V40.7931C14.1028 40.538 14.3099 40.3306 14.5646 40.3306H16.6159V42.7782ZM27.5069 38.6746C27.4314 38.806 27.3118 38.8397 27.2472 38.8481C27.1826 38.8569 27.0582 38.8547 26.9513 38.7469L24.2305 36.0024C24.1313 35.9023 24.1016 35.7533 24.1548 35.623L26.3643 30.2081L31.2039 32.2384L27.5069 38.6746ZM33.3767 37.3406C33.3751 37.3421 33.3737 37.3436 33.3722 37.3452L32.9035 37.8293C32.7825 37.9543 32.591 37.9726 32.4483 37.8729L30.1592 36.2713L32.2261 32.6729L35.7594 34.1956C35.9124 34.2615 35.9541 34.395 35.9649 34.4493C35.9757 34.5036 35.9885 34.6426 35.873 34.762L35.8494 34.7864C35.8462 34.7895 35.8432 34.7928 35.8401 34.7959L33.3767 37.3406ZM34.3624 37.9079L36.288 35.9189C36.6019 36.2258 36.8092 36.635 36.8663 37.0736L37.9062 45.1013H35.7772L34.3624 37.9079ZM39.3571 48.7199H36.766C36.2745 48.7199 35.8747 48.3196 35.8747 47.8276V46.2039H38.3196L39.8058 47.5601C39.944 47.6862 40.0232 47.8658 40.0232 48.0529C40.0231 48.4207 39.7243 48.7199 39.3571 48.7199ZM46.1576 40.138C43.4876 40.138 41.3153 42.3103 41.3153 44.9804C41.3153 47.6504 43.4876 49.8227 46.1576 49.8227C48.8277 49.8227 51 47.6504 51 44.9804C51 42.3103 48.8277 40.138 46.1576 40.138ZM46.1576 48.7199C44.0957 48.7199 42.4181 47.0424 42.4181 44.9804C42.4181 42.9184 44.0957 41.2408 46.1576 41.2408C48.2196 41.2408 49.8972 42.9184 49.8972 44.9804C49.8972 47.0424 48.2196 48.7199 46.1576 48.7199Z" fill="white" stroke="white" stroke-width="1.98123" mask="url(#path-2-inside-1)"/>
</g>
<defs>
<clipPath id="clip0">
<rect width="38" height="38" fill="white" transform="translate(13 12)"/>
</clipPath>
</defs>
</svg>
