<svg width="70" height="70" viewBox="0 0 70 70" fill="none" xmlns="http://www.w3.org/2000/svg">
<path d="M61.8987 17.3683L61.9487 17.1556L61.8265 16.9743C58.458 11.9777 53.7686 8.01556 48.2798 5.52879L48.0857 5.44084L47.8878 5.51999L35.951 10.2944L35.6366 10.4201V10.7586V23.0857V23.326L35.8243 23.4762L46.2835 31.8421L46.4959 32.012L46.7539 31.926L59.2064 27.7755L59.4712 27.6872L59.535 27.4156L61.8987 17.3683ZM61.6798 52.9388L61.8978 52.9043L62.0193 52.72C64.921 48.3173 66.6944 43.2678 67.1827 38.0175L67.2019 37.8107L67.0689 37.6511L60.0147 29.1864L59.7963 28.9243L59.4726 29.0322L47.1582 33.136L46.8979 33.2228L46.8313 33.4891L43.7038 45.9943L43.6458 46.2266L43.7902 46.4174L49.9291 54.5269L50.1099 54.7657L50.4057 54.719L61.6798 52.9388ZM19.6438 54.7267L19.9412 54.7737L20.1218 54.5328L26.2063 46.4189L26.349 46.2286L26.2913 45.9977L23.1639 33.4858L23.0973 33.2195L22.8369 33.1327L10.5226 29.0289L10.1987 28.9209L9.98029 29.1833L2.93164 37.648L2.79882 37.8075L2.81801 38.0141C3.30576 43.2655 5.07858 48.3161 7.98028 52.72L8.10175 52.9043L8.31982 52.9388L19.6438 54.7267ZM2.67824 34.5697L2.66147 35.9759L3.56218 34.896L9.13648 28.2126L9.29636 28.0209L9.23924 27.7779L7.3952 19.9338L7.09197 18.6439L6.46749 19.8126C4.03943 24.3563 2.73971 29.4182 2.67824 34.5697ZM27.4444 45.3525L27.539 45.7314H27.9295H42.0701H42.4605L42.5552 45.3526L45.5732 33.2804L45.651 32.9691L45.4005 32.7687L35.3122 24.697L34.9998 24.4471L34.6875 24.697L24.6013 32.7653L24.3508 32.9657L24.4286 33.2769L27.4444 45.3525ZM60.7603 27.7734L60.7032 28.0164L60.8631 28.2081L66.4374 34.8915L67.3381 35.9714L67.3213 34.5653C67.2599 29.4132 65.9602 24.3518 63.5321 19.8081L62.9076 18.6395L62.6044 19.9293L60.7603 27.7734ZM45.1589 5.24114L46.4301 4.73272L45.1305 4.30225C38.534 2.11734 31.4075 2.12353 24.8149 4.32086L23.513 4.75481L24.789 5.26009L34.8157 9.23071L35.0007 9.30397L35.1855 9.23008L45.1589 5.24114ZM22.0559 5.54549L21.8581 5.46711L21.6645 5.55527C16.1994 8.04372 11.5303 11.9957 8.17309 16.9743L8.05087 17.1555L8.10093 17.3683L10.4645 27.4156L10.5284 27.6872L10.7932 27.7755L23.2457 31.926L23.5037 32.012L23.7161 31.8421L34.1753 23.4762L34.363 23.326V23.0857V10.7625V10.4228L34.0472 10.2977L22.0559 5.54549ZM10.3754 54.5528L9.08725 54.3493L9.90915 55.3618C13.8309 60.1929 19.0595 63.7938 24.9713 65.7355L26.3031 66.1729L25.5488 64.9914L19.9601 56.2375L19.839 56.0478L19.6167 56.0127L10.3754 54.5528ZM21.203 55.2151L20.9952 55.4923L21.1817 55.7843L27.915 66.3259L27.9622 66.5621L28.2841 66.6305C33.0424 67.6414 37.9676 67.5625 42.6909 66.3993L42.8993 66.348L43.0056 66.1616L48.9169 55.8018L49.0804 55.5152L48.8812 55.2522L42.7879 47.2033L42.6379 47.0051H42.3893H27.6103H27.3603L27.2103 47.2051L21.203 55.2151ZM45.2952 64.7176L44.6218 65.8961L45.8987 65.4361C51.4599 63.433 56.3688 59.9494 60.0948 55.3607L60.9168 54.3485L59.6288 54.5516L50.4968 55.9921L50.2597 56.0295L50.1406 56.2379L45.2952 64.7176ZM1.39453 34.9998C1.39453 16.4404 16.4402 1.39468 34.9995 1.39453C53.5504 1.41547 68.5843 16.4494 68.6051 35.0004C68.6048 53.5596 53.5591 68.6051 34.9998 68.6051C16.4403 68.6051 1.39453 53.5593 1.39453 34.9998Z" fill="#82898E" stroke="#82898E"/>
</svg>
