<svg width="72" height="72" viewBox="0 0 72 72" fill="none" xmlns="http://www.w3.org/2000/svg">
<!-- <mask id="path-1-inside-1" fill="white"> -->
<path d="M52.1985 65.834L49.3664 63.2497L47.2924 47.2388C47.114 45.8688 46.4406 44.5958 45.4228 43.6736C45.6136 43.1883 45.6669 42.6521 45.5617 42.1261C45.3842 41.2384 44.7817 40.4945 43.9501 40.1361L36.4123 36.8875C36.4117 36.8872 36.411 36.8869 36.4105 36.8868L36.4029 36.8836C36.3988 36.8818 36.395 36.8796 36.391 36.8779L26.0928 32.5576L29.2602 24.3364L32.9333 24.1964C33.5098 24.1744 33.9595 23.6892 33.9375 23.1126C33.9155 22.536 33.432 22.0886 32.8537 22.1083L27.9475 22.2954L27.9534 18.9325L34.0871 18.6076C34.6633 18.5771 35.1057 18.0852 35.0752 17.509C35.0448 16.9329 34.5521 16.4889 33.9767 16.5209L32.6081 16.5934C32.7421 16.414 32.8814 16.2384 33.028 16.0696C33.7181 15.276 34.6774 14.7924 35.711 14.7032C37.088 16.4853 39.6284 17.4971 41.9087 17.0839C42.6536 17.6684 42.9329 18.6883 42.5523 19.5903L36.5076 33.9189C36.2833 34.4505 36.5325 35.0633 37.0641 35.2876C37.584 35.5068 38.2065 35.2695 38.4328 34.731L41.7752 26.8078L44.5619 28.6537C45.195 29.0732 45.9249 29.2927 46.681 29.2927C46.8133 29.2927 56.3573 28.9368 56.502 28.9314C57.5088 28.894 58.4622 28.4338 59.1179 27.6684C59.774 26.9025 60.0827 25.8888 59.965 24.8871C59.7505 23.0626 58.204 21.6868 56.368 21.6868H47.2965L44.6509 19.9061C45.0042 18.6629 44.7644 17.3568 44.0522 16.3382C44.1227 16.2992 44.1939 16.2623 44.2632 16.2205C45.7755 15.3093 46.8429 13.8636 47.2686 12.1496L48.1635 8.54726C49.0425 5.00863 46.8804 1.41498 43.3438 0.536381C41.6306 0.110664 39.8539 0.37827 38.3415 1.28946C36.8292 2.20066 35.7619 3.64637 35.336 5.36052L34.4412 8.96281C34.1164 10.2703 34.2079 11.5851 34.6296 12.7679C32.5589 13.212 31.0109 14.9031 30.048 16.7286L23.1918 17.0917C21.9188 17.1591 20.7109 17.6815 19.7904 18.5629L13.7149 24.3798C12.9519 25.1105 12.5252 26.0944 12.5135 27.1503C12.5019 28.2063 12.9066 29.1992 13.6534 29.9466C14.4107 30.7043 15.4081 31.0836 16.4061 31.0835C17.3954 31.0835 18.3852 30.7106 19.1408 29.964L24.6597 24.5115L26.9877 24.4228L23.7863 32.7322C23.7862 32.7324 23.7861 32.7327 23.7859 32.7331L19.2007 43.9703C18.7828 44.9946 19.0161 46.1641 19.7951 46.9498L24.0122 51.2035L8.94074 57.183V53.3283L17.8298 49.6338C18.3626 49.4123 18.6151 48.8009 18.3936 48.2679C18.1721 47.7352 17.5607 47.4828 17.0278 47.7041L7.67933 51.5898H2.96455C1.32981 51.5898 0 52.9203 0 54.5556V60.2824C0 62.1313 1.50352 63.6355 3.35154 63.6355C4.29185 63.6355 5.19469 63.2368 5.82825 62.5414L8.50569 59.6036L25.81 52.738C26.2608 52.9349 26.7711 53.0069 27.2654 52.9424C28.1257 52.83 28.8668 52.3343 29.2988 51.5822L31.4674 47.8069L35.6517 50.7344C36.1332 51.0713 36.6857 51.2362 37.2346 51.2362C37.7419 51.2362 38.2447 51.0923 38.6863 50.8161L41.2521 63.8621V67.8841C41.2521 69.9686 42.9471 71.6643 45.0305 71.6643H49.9399C51.7879 71.6643 53.2915 70.1601 53.2915 68.3112C53.2913 67.3707 52.893 66.4678 52.1985 65.834ZM47.8372 23.7764H56.368C57.1448 23.7764 57.7989 24.3588 57.8898 25.131C57.9403 25.5616 57.813 25.9799 57.5311 26.3089C57.2495 26.6374 56.8567 26.8272 56.4247 26.8432L47.168 27.1861L47.8372 23.7764ZM45.8187 23.2109L45.1641 26.546L42.6017 24.8487L43.8513 21.8867L45.8187 23.2109ZM37.3641 5.86424C37.6554 4.69171 38.3857 3.70251 39.42 3.07926C40.4576 2.45406 41.6763 2.27519 42.8402 2.56425C45.363 3.19098 46.9224 5.96413 46.0289 8.47301L42.7172 6.48276C41.7046 5.87427 40.3979 6.07167 39.6107 6.95194L38.8904 7.75712C38.7669 7.89517 38.5577 7.92164 38.4034 7.81939L37.0944 6.95055L37.3641 5.86424ZM36.4692 9.46654L36.5594 9.10351L37.2474 9.56029C38.261 10.2331 39.6368 10.0569 40.4475 9.15031L41.1679 8.34513C41.2877 8.21126 41.4866 8.18117 41.6408 8.2738L45.5019 10.5942L45.2407 11.6458C44.6607 14.0239 42.1438 15.5472 39.7646 14.9457C37.3463 14.3449 35.8681 11.887 36.4692 9.46654ZM25.858 22.3747L24.1743 22.4389C23.9133 22.4488 23.6656 22.5562 23.4799 22.7397L17.6722 28.4775C16.9696 29.1715 15.8298 29.1682 15.1316 28.4694C14.7854 28.123 14.5976 27.6627 14.6031 27.1733C14.6085 26.684 14.8063 26.2279 15.1602 25.8892L21.2357 20.0723C21.795 19.5369 22.529 19.2194 23.3025 19.1785L25.8639 19.0428L25.858 22.3747ZM6.85116 58.3169L4.28377 61.134C4.04528 61.3957 3.70552 61.5459 3.35154 61.5459C2.65571 61.5459 2.08958 60.9791 2.08958 60.2824V54.5556C2.08958 54.0723 2.482 53.6793 2.96455 53.6793H6.85116V58.3169ZM27.4867 50.5416C27.3438 50.7906 27.1171 50.8545 26.9947 50.8704C26.8724 50.887 26.6365 50.8828 26.4341 50.6786L21.2789 45.4784C21.0908 45.2888 21.0345 45.0065 21.1354 44.7596L25.3218 34.4998L34.4915 38.3467L27.4867 50.5416ZM38.6084 48.0139C38.6055 48.0169 38.6028 48.0198 38.5999 48.0227L37.7118 48.94C37.4825 49.1768 37.1198 49.2115 36.8494 49.0225L32.5121 45.988L36.4284 39.17L43.123 42.0552C43.4129 42.18 43.492 42.433 43.5125 42.5358C43.533 42.6386 43.5572 42.902 43.3382 43.1282L43.2935 43.1745C43.2875 43.1803 43.2818 43.1866 43.276 43.1926L38.6084 48.0139ZM40.4761 49.0889L44.1246 45.3202C44.7194 45.9018 45.1122 46.677 45.2204 47.5081L47.1907 62.7184H43.1567L40.4761 49.0889ZM49.9398 69.5747H45.0304C44.0991 69.5747 43.3416 68.8164 43.3416 67.8841V64.8077H47.9739L50.7899 67.3773C51.0517 67.6163 51.2019 67.9566 51.2019 68.3111C51.2017 69.0079 50.6356 69.5747 49.9398 69.5747ZM62.8249 53.3144C57.7659 53.3144 53.65 57.4303 53.65 62.4894C53.65 67.5484 57.7659 71.6643 62.8249 71.6643C67.8841 71.6643 72 67.5484 72 62.4894C72 57.4303 67.8841 53.3144 62.8249 53.3144ZM62.8249 69.5747C58.9181 69.5747 55.7396 66.3964 55.7396 62.4894C55.7396 58.5825 58.9181 55.4039 62.8249 55.4039C66.7319 55.4039 69.9104 58.5825 69.9104 62.4894C69.9104 66.3964 66.7319 69.5747 62.8249 69.5747Z"/>
</mask>
<path d="M52.1985 65.834L49.3664 63.2497L47.2924 47.2388C47.114 45.8688 46.4406 44.5958 45.4228 43.6736C45.6136 43.1883 45.6669 42.6521 45.5617 42.1261C45.3842 41.2384 44.7817 40.4945 43.9501 40.1361L36.4123 36.8875C36.4117 36.8872 36.411 36.8869 36.4105 36.8868L36.4029 36.8836C36.3988 36.8818 36.395 36.8796 36.391 36.8779L26.0928 32.5576L29.2602 24.3364L32.9333 24.1964C33.5098 24.1744 33.9595 23.6892 33.9375 23.1126C33.9155 22.536 33.432 22.0886 32.8537 22.1083L27.9475 22.2954L27.9534 18.9325L34.0871 18.6076C34.6633 18.5771 35.1057 18.0852 35.0752 17.509C35.0448 16.9329 34.5521 16.4889 33.9767 16.5209L32.6081 16.5934C32.7421 16.414 32.8814 16.2384 33.028 16.0696C33.7181 15.276 34.6774 14.7924 35.711 14.7032C37.088 16.4853 39.6284 17.4971 41.9087 17.0839C42.6536 17.6684 42.9329 18.6883 42.5523 19.5903L36.5076 33.9189C36.2833 34.4505 36.5325 35.0633 37.0641 35.2876C37.584 35.5068 38.2065 35.2695 38.4328 34.731L41.7752 26.8078L44.5619 28.6537C45.195 29.0732 45.9249 29.2927 46.681 29.2927C46.8133 29.2927 56.3573 28.9368 56.502 28.9314C57.5088 28.894 58.4622 28.4338 59.1179 27.6684C59.774 26.9025 60.0827 25.8888 59.965 24.8871C59.7505 23.0626 58.204 21.6868 56.368 21.6868H47.2965L44.6509 19.9061C45.0042 18.6629 44.7644 17.3568 44.0522 16.3382C44.1227 16.2992 44.1939 16.2623 44.2632 16.2205C45.7755 15.3093 46.8429 13.8636 47.2686 12.1496L48.1635 8.54726C49.0425 5.00863 46.8804 1.41498 43.3438 0.536381C41.6306 0.110664 39.8539 0.37827 38.3415 1.28946C36.8292 2.20066 35.7619 3.64637 35.336 5.36052L34.4412 8.96281C34.1164 10.2703 34.2079 11.5851 34.6296 12.7679C32.5589 13.212 31.0109 14.9031 30.048 16.7286L23.1918 17.0917C21.9188 17.1591 20.7109 17.6815 19.7904 18.5629L13.7149 24.3798C12.9519 25.1105 12.5252 26.0944 12.5135 27.1503C12.5019 28.2063 12.9066 29.1992 13.6534 29.9466C14.4107 30.7043 15.4081 31.0836 16.4061 31.0835C17.3954 31.0835 18.3852 30.7106 19.1408 29.964L24.6597 24.5115L26.9877 24.4228L23.7863 32.7322C23.7862 32.7324 23.7861 32.7327 23.7859 32.7331L19.2007 43.9703C18.7828 44.9946 19.0161 46.1641 19.7951 46.9498L24.0122 51.2035L8.94074 57.183V53.3283L17.8298 49.6338C18.3626 49.4123 18.6151 48.8009 18.3936 48.2679C18.1721 47.7352 17.5607 47.4828 17.0278 47.7041L7.67933 51.5898H2.96455C1.32981 51.5898 0 52.9203 0 54.5556V60.2824C0 62.1313 1.50352 63.6355 3.35154 63.6355C4.29185 63.6355 5.19469 63.2368 5.82825 62.5414L8.50569 59.6036L25.81 52.738C26.2608 52.9349 26.7711 53.0069 27.2654 52.9424C28.1257 52.83 28.8668 52.3343 29.2988 51.5822L31.4674 47.8069L35.6517 50.7344C36.1332 51.0713 36.6857 51.2362 37.2346 51.2362C37.7419 51.2362 38.2447 51.0923 38.6863 50.8161L41.2521 63.8621V67.8841C41.2521 69.9686 42.9471 71.6643 45.0305 71.6643H49.9399C51.7879 71.6643 53.2915 70.1601 53.2915 68.3112C53.2913 67.3707 52.893 66.4678 52.1985 65.834ZM47.8372 23.7764H56.368C57.1448 23.7764 57.7989 24.3588 57.8898 25.131C57.9403 25.5616 57.813 25.9799 57.5311 26.3089C57.2495 26.6374 56.8567 26.8272 56.4247 26.8432L47.168 27.1861L47.8372 23.7764ZM45.8187 23.2109L45.1641 26.546L42.6017 24.8487L43.8513 21.8867L45.8187 23.2109ZM37.3641 5.86424C37.6554 4.69171 38.3857 3.70251 39.42 3.07926C40.4576 2.45406 41.6763 2.27519 42.8402 2.56425C45.363 3.19098 46.9224 5.96413 46.0289 8.47301L42.7172 6.48276C41.7046 5.87427 40.3979 6.07167 39.6107 6.95194L38.8904 7.75712C38.7669 7.89517 38.5577 7.92164 38.4034 7.81939L37.0944 6.95055L37.3641 5.86424ZM36.4692 9.46654L36.5594 9.10351L37.2474 9.56029C38.261 10.2331 39.6368 10.0569 40.4475 9.15031L41.1679 8.34513C41.2877 8.21126 41.4866 8.18117 41.6408 8.2738L45.5019 10.5942L45.2407 11.6458C44.6607 14.0239 42.1438 15.5472 39.7646 14.9457C37.3463 14.3449 35.8681 11.887 36.4692 9.46654ZM25.858 22.3747L24.1743 22.4389C23.9133 22.4488 23.6656 22.5562 23.4799 22.7397L17.6722 28.4775C16.9696 29.1715 15.8298 29.1682 15.1316 28.4694C14.7854 28.123 14.5976 27.6627 14.6031 27.1733C14.6085 26.684 14.8063 26.2279 15.1602 25.8892L21.2357 20.0723C21.795 19.5369 22.529 19.2194 23.3025 19.1785L25.8639 19.0428L25.858 22.3747ZM6.85116 58.3169L4.28377 61.134C4.04528 61.3957 3.70552 61.5459 3.35154 61.5459C2.65571 61.5459 2.08958 60.9791 2.08958 60.2824V54.5556C2.08958 54.0723 2.482 53.6793 2.96455 53.6793H6.85116V58.3169ZM27.4867 50.5416C27.3438 50.7906 27.1171 50.8545 26.9947 50.8704C26.8724 50.887 26.6365 50.8828 26.4341 50.6786L21.2789 45.4784C21.0908 45.2888 21.0345 45.0065 21.1354 44.7596L25.3218 34.4998L34.4915 38.3467L27.4867 50.5416ZM38.6084 48.0139C38.6055 48.0169 38.6028 48.0198 38.5999 48.0227L37.7118 48.94C37.4825 49.1768 37.1198 49.2115 36.8494 49.0225L32.5121 45.988L36.4284 39.17L43.123 42.0552C43.4129 42.18 43.492 42.433 43.5125 42.5358C43.533 42.6386 43.5572 42.902 43.3382 43.1282L43.2935 43.1745C43.2875 43.1803 43.2818 43.1866 43.276 43.1926L38.6084 48.0139ZM40.4761 49.0889L44.1246 45.3202C44.7194 45.9018 45.1122 46.677 45.2204 47.5081L47.1907 62.7184H43.1567L40.4761 49.0889ZM49.9398 69.5747H45.0304C44.0991 69.5747 43.3416 68.8164 43.3416 67.8841V64.8077H47.9739L50.7899 67.3773C51.0517 67.6163 51.2019 67.9566 51.2019 68.3111C51.2017 69.0079 50.6356 69.5747 49.9398 69.5747ZM62.8249 53.3144C57.7659 53.3144 53.65 57.4303 53.65 62.4894C53.65 67.5484 57.7659 71.6643 62.8249 71.6643C67.8841 71.6643 72 67.5484 72 62.4894C72 57.4303 67.8841 53.3144 62.8249 53.3144ZM62.8249 69.5747C58.9181 69.5747 55.7396 66.3964 55.7396 62.4894C55.7396 58.5825 58.9181 55.4039 62.8249 55.4039C66.7319 55.4039 69.9104 58.5825 69.9104 62.4894C69.9104 66.3964 66.7319 69.5747 62.8249 69.5747Z" fill="#82898E" />
</svg>
