<svg width="16" height="16" viewBox="0 0 16 16" fill="none" xmlns="http://www.w3.org/2000/svg">
<path d="M8.6689 0.352106C8.28859 0.00981373 7.71125 0.00981322 7.33094 0.352105L0.691455 6.32788C0.0379353 6.91607 0.454015 8.00033 1.33325 8.00033V14.5003C1.33325 15.0526 1.78097 15.5003 2.33325 15.5003H6.16658C6.71887 15.5003 7.16658 15.0526 7.16658 14.5003V10.5003H8.83325V14.5003C8.83325 15.0526 9.28097 15.5003 9.83325 15.5003H13.6666C14.2189 15.5003 14.6666 15.0526 14.6666 14.5003V8.00033C15.5458 8.00033 15.9619 6.91607 15.3084 6.32788L8.6689 0.352106ZM7.99992 1.99284L12.9999 6.49317V7.16699V13.8337H10.4999V8.83366H5.49992V13.8337H2.99992V6.49317L7.99992 1.99284Z" fill="#161F26"/>
</svg>
