<svg width="28" height="40" viewBox="0 0 28 40" fill="none" xmlns="http://www.w3.org/2000/svg">
<path d="M27.1551 1.61641C25.3423 0.52875 23.4097 0 21.2469 0C18.6593 0 16.1192 0.761953 13.6628 1.49883C11.2631 2.21867 8.99647 2.89859 6.75295 2.89875C6.75264 2.89875 6.75241 2.89875 6.75209 2.89875C5.25217 2.89875 3.89405 2.58125 2.61975 1.93141V1.17188C2.61975 0.524687 2.09506 0 1.44788 0C0.800688 0 0.276001 0.524687 0.276001 1.17188V2.62117V18.5505V38.8281C0.276001 39.4753 0.800688 40 1.44788 40C2.09506 40 2.61975 39.4753 2.61975 38.8281V20.426C3.91405 20.926 5.28006 21.1719 6.75303 21.1719C9.34061 21.1719 11.8805 20.4099 14.3367 19.673C16.7365 18.9531 19.0033 18.2731 21.2469 18.2731C22.9729 18.2731 24.5109 18.6926 25.9491 19.5555C26.3111 19.7727 26.7619 19.7785 27.1294 19.5705C27.4969 19.3624 27.7239 18.9729 27.7239 18.5507V2.62125C27.724 2.20961 27.508 1.82812 27.1551 1.61641ZM13.6633 17.4282C11.2634 18.1481 8.99663 18.8281 6.75311 18.8281C5.25264 18.8281 3.8942 18.5111 2.61983 17.8612V4.49734C3.91389 4.99727 5.27967 5.24258 6.75217 5.2425C6.75241 5.2425 6.75295 5.2425 6.75327 5.2425C9.34061 5.24234 11.8803 4.48047 14.3363 3.74367C16.7362 3.02375 19.0033 2.34375 21.2469 2.34375C22.7474 2.34375 24.1058 2.66078 25.3801 3.31055V16.6746C24.0859 16.1746 22.7198 15.9294 21.2469 15.9294C18.6594 15.9294 16.1195 16.6913 13.6633 17.4282Z" fill="#77B7FD"/>
</svg>
