<svg width="40" height="40" viewBox="0 0 40 40" fill="none" xmlns="http://www.w3.org/2000/svg">
<path d="M35.8597 4.33897C35.778 4.33565 35.6962 4.33509 35.6144 4.3374H32.53V1.68677C32.5301 0.626521 31.518 0 30.4578 0H27.6144C26.5542 0 25.7831 0.626521 25.7831 1.68677V4.33731H14.2168V1.68677C14.2168 0.626521 13.4458 0 12.3855 0H9.5421C8.48194 0 7.46984 0.626521 7.46984 1.68677V4.33731H4.38558C2.41672 4.28242 0.776165 5.83406 0.72128 7.80282C0.718974 7.88455 0.719527 7.96646 0.722848 8.04819V35.9035C0.722848 38.024 2.26498 39.9999 4.38548 39.9999H35.6145C37.735 39.9999 39.2771 38.024 39.2771 35.9035V8.04819C39.3577 6.08026 37.8277 4.41959 35.8597 4.33897ZM27.6144 1.92771H30.6024V7.22888H27.6144V1.92771ZM9.5422 1.92771H12.2892V7.22888H9.5422V1.92771ZM37.3494 35.9035C37.3494 36.9638 36.6747 38.0722 35.6145 38.0722H4.38558C3.32533 38.0722 2.65065 36.9638 2.65065 35.9035V15.4217H37.3494V35.9035ZM37.3494 8.04819V13.494H2.65056V8.04819C2.56893 7.14697 3.23336 6.35016 4.13458 6.26853C4.21797 6.26096 4.30191 6.25986 4.38548 6.26511H7.46984V7.32537C7.46984 8.38562 8.48185 9.15668 9.5421 9.15668H12.3855C13.3699 9.18371 14.1898 8.40748 14.2168 7.42305C14.2178 7.39049 14.2178 7.35793 14.2168 7.32537V6.26502H25.7831V7.32527C25.7561 8.3097 26.5323 9.12956 27.5168 9.15659C27.5493 9.15751 27.5819 9.15751 27.6144 9.15659H30.4579C31.5181 9.15659 32.5301 8.38552 32.5301 7.32527V6.26502H35.6145C36.5176 6.20811 37.2959 6.89413 37.3528 7.79729C37.3581 7.88086 37.357 7.9648 37.3494 8.04819Z" fill="#77B7FD"/>
<path d="M14.6506 28.5782L13.7831 33.3975C13.7488 33.6042 13.7827 33.8166 13.8799 34.0023C14.1266 34.4739 14.7091 34.6563 15.1807 34.4095L19.518 32.1445L23.8553 34.4095L24.289 34.5059C24.4982 34.5096 24.7023 34.4415 24.8673 34.3131C25.1554 34.1027 25.3036 33.7505 25.2529 33.3974L24.3854 28.5781L27.9035 25.2047C28.1553 24.9327 28.2466 24.5489 28.1445 24.1927C28.0147 23.8634 27.7223 23.6258 27.3734 23.5662L22.5541 22.8432L20.3855 18.4577C20.2909 18.2625 20.1334 18.1049 19.9382 18.0104C19.4591 17.7784 18.8826 17.9787 18.6505 18.4577L16.4819 22.8432L11.6626 23.5662C11.3137 23.6258 11.0213 23.8634 10.8915 24.1927C10.7894 24.5489 10.8808 24.9327 11.1325 25.2047L14.6506 28.5782ZM17.3012 24.6747C17.6038 24.6294 17.8603 24.4279 17.9759 24.1445L19.518 21.0602L21.0601 24.1445C21.1758 24.4279 21.4322 24.6294 21.7348 24.6747L25.1565 25.1565L22.6987 27.518C22.4697 27.7446 22.3623 28.0667 22.4095 28.3854L22.9878 31.8071L19.9516 30.1686L19.5179 30.0722L19.0842 30.1686L16.0481 31.8071L16.6263 28.3854C16.6736 28.0667 16.5661 27.7446 16.3372 27.518L13.8793 25.1565L17.3012 24.6747Z" fill="#77B7FD"/>
</svg>
