<svg width="27" height="26" viewBox="0 0 27 26" fill="none" xmlns="http://www.w3.org/2000/svg">
<g clip-path="url(#clip0)">
<path d="M7.23254 22.6925H2.54388V7.59353H7.23254V22.6925ZM4.88538 5.53392C3.38631 5.53392 2.16992 4.29169 2.16992 2.79261C2.16992 2.07242 2.45601 1.38174 2.96526 0.872489C3.47451 0.363241 4.1652 0.0771484 4.88538 0.0771484C5.60557 0.0771484 6.29626 0.363241 6.8055 0.872489C7.31475 1.38174 7.60084 2.07242 7.60084 2.79261C7.60084 4.29169 6.38446 5.53392 4.88538 5.53392ZM24.7805 22.6925H20.1023V15.3425C20.1023 13.5906 20.0668 11.3445 17.6647 11.3445C15.2271 11.3445 14.8531 13.2474 14.8531 15.2165V22.6925H10.1693V7.59353H14.6657V9.65315H14.7312C15.3571 8.46665 16.8861 7.21472 19.167 7.21472C23.9122 7.21472 24.7845 10.3397 24.7845 14.3983V22.6925H24.7805Z" fill="#0E76A8"/>
</g>
<defs>
<clipPath id="clip0">
<rect width="25.8462" height="25.8462" fill="white" transform="translate(0.554688 0.0771484)"/>
</clipPath>
</defs>
</svg>
