<svg width="24" height="24" viewBox="0 0 24 24" fill="none" xmlns="http://www.w3.org/2000/svg">
<path d="M4.8002 4C4.37585 4 3.96888 4.16857 3.66882 4.46863C3.36877 4.76869 3.2002 5.17565 3.2002 5.6C3.2002 6.02435 3.36877 6.43131 3.66882 6.73137C3.96888 7.03143 4.37585 7.2 4.8002 7.2C5.22454 7.2 5.63151 7.03143 5.93157 6.73137C6.23162 6.43131 6.4002 6.02435 6.4002 5.6C6.4002 5.17565 6.23162 4.76869 5.93157 4.46863C5.63151 4.16857 5.22454 4 4.8002 4ZM9.60019 4.8C9.49419 4.7985 9.38894 4.81809 9.29056 4.85762C9.19219 4.89715 9.10265 4.95584 9.02715 5.03027C8.95166 5.10471 8.89171 5.19341 8.85079 5.29121C8.80987 5.38902 8.7888 5.49398 8.7888 5.6C8.7888 5.70602 8.80987 5.81098 8.85079 5.90879C8.89171 6.00659 8.95166 6.09529 9.02715 6.16973C9.10265 6.24416 9.19219 6.30285 9.29056 6.34238C9.38894 6.38191 9.49419 6.4015 9.60019 6.4H20.0002C20.1062 6.4015 20.2115 6.38191 20.3098 6.34238C20.4082 6.30285 20.4977 6.24416 20.5732 6.16973C20.6487 6.09529 20.7087 6.00659 20.7496 5.90879C20.7905 5.81098 20.8116 5.70602 20.8116 5.6C20.8116 5.49398 20.7905 5.38902 20.7496 5.29121C20.7087 5.19341 20.6487 5.10471 20.5732 5.03027C20.4977 4.95584 20.4082 4.89715 20.3098 4.85762C20.2115 4.81809 20.1062 4.7985 20.0002 4.8H9.60019ZM4.8002 10.4C4.37585 10.4 3.96888 10.5686 3.66882 10.8686C3.36877 11.1687 3.2002 11.5757 3.2002 12C3.2002 12.4243 3.36877 12.8313 3.66882 13.1314C3.96888 13.4314 4.37585 13.6 4.8002 13.6C5.22454 13.6 5.63151 13.4314 5.93157 13.1314C6.23162 12.8313 6.4002 12.4243 6.4002 12C6.4002 11.5757 6.23162 11.1687 5.93157 10.8686C5.63151 10.5686 5.22454 10.4 4.8002 10.4ZM9.60019 11.2C9.49419 11.1985 9.38894 11.2181 9.29056 11.2576C9.19219 11.2971 9.10265 11.3558 9.02715 11.4303C8.95166 11.5047 8.89171 11.5934 8.85079 11.6912C8.80987 11.789 8.7888 11.894 8.7888 12C8.7888 12.106 8.80987 12.211 8.85079 12.3088C8.89171 12.4066 8.95166 12.4953 9.02715 12.5697C9.10265 12.6442 9.19219 12.7029 9.29056 12.7424C9.38894 12.7819 9.49419 12.8015 9.60019 12.8H20.0002C20.1062 12.8015 20.2115 12.7819 20.3098 12.7424C20.4082 12.7029 20.4977 12.6442 20.5732 12.5697C20.6487 12.4953 20.7087 12.4066 20.7496 12.3088C20.7905 12.211 20.8116 12.106 20.8116 12C20.8116 11.894 20.7905 11.789 20.7496 11.6912C20.7087 11.5934 20.6487 11.5047 20.5732 11.4303C20.4977 11.3558 20.4082 11.2971 20.3098 11.2576C20.2115 11.2181 20.1062 11.1985 20.0002 11.2H9.60019ZM4.8002 16.8C4.37585 16.8 3.96888 16.9686 3.66882 17.2686C3.36877 17.5687 3.2002 17.9757 3.2002 18.4C3.2002 18.8243 3.36877 19.2313 3.66882 19.5314C3.96888 19.8314 4.37585 20 4.8002 20C5.22454 20 5.63151 19.8314 5.93157 19.5314C6.23162 19.2313 6.4002 18.8243 6.4002 18.4C6.4002 17.9757 6.23162 17.5687 5.93157 17.2686C5.63151 16.9686 5.22454 16.8 4.8002 16.8ZM9.60019 17.6C9.49419 17.5985 9.38894 17.6181 9.29056 17.6576C9.19219 17.6971 9.10265 17.7558 9.02715 17.8303C8.95166 17.9047 8.89171 17.9934 8.85079 18.0912C8.80987 18.189 8.7888 18.294 8.7888 18.4C8.7888 18.506 8.80987 18.611 8.85079 18.7088C8.89171 18.8066 8.95166 18.8953 9.02715 18.9697C9.10265 19.0442 9.19219 19.1028 9.29056 19.1424C9.38894 19.1819 9.49419 19.2015 9.60019 19.2H20.0002C20.1062 19.2015 20.2115 19.1819 20.3098 19.1424C20.4082 19.1028 20.4977 19.0442 20.5732 18.9697C20.6487 18.8953 20.7087 18.8066 20.7496 18.7088C20.7905 18.611 20.8116 18.506 20.8116 18.4C20.8116 18.294 20.7905 18.189 20.7496 18.0912C20.7087 17.9934 20.6487 17.9047 20.5732 17.8303C20.4977 17.7558 20.4082 17.6971 20.3098 17.6576C20.2115 17.6181 20.1062 17.5985 20.0002 17.6H9.60019Z" fill="white"/>
</svg>
