<svg width="8" height="11" viewBox="0 0 8 11" fill="none" xmlns="http://www.w3.org/2000/svg">
<path d="M3.82996 0.00390625C1.90196 0.00390625 0.333862 1.57298 0.333862 3.50098C0.333862 5.74248 3.31721 9.38361 3.44421 9.53711L3.82996 10.0049L4.2157 9.53711C4.3427 9.38311 7.32605 5.74248 7.32605 3.50098C7.32605 1.57248 5.75796 0.00390625 3.82996 0.00390625ZM3.82996 1.00391C5.20646 1.00391 6.32605 2.12448 6.32605 3.50098C6.32605 4.85348 4.76896 7.17961 3.82996 8.41211C2.89096 7.18061 1.33386 4.85548 1.33386 3.50098C1.33386 2.12448 2.45346 1.00391 3.82996 1.00391ZM3.82996 2.24902C3.13946 2.24902 2.57996 2.80852 2.57996 3.49902C2.57996 4.18952 3.13946 4.74902 3.82996 4.74902C4.52046 4.74902 5.07996 4.18952 5.07996 3.49902C5.07996 2.80852 4.52046 2.24902 3.82996 2.24902Z" fill="white" />
</svg>
