<svg width="24" height="24" viewBox="0 0 24 24" fill="none" xmlns="http://www.w3.org/2000/svg">
<path fill-rule="evenodd" clip-rule="evenodd" d="M5.90209 3.35538C6.14563 3.09768 6.55572 3.09768 6.79926 3.35538C7.0241 3.59329 7.02409 3.96535 6.79926 4.20326L4.864 6.25103H20.8499C21.2639 6.25103 21.5999 6.60943 21.5999 7.05103C21.5999 7.49263 21.2639 7.85103 20.8499 7.85103H4.80789L6.79926 9.95818C7.0241 10.1961 7.0241 10.5681 6.79926 10.8061C6.55572 11.0638 6.14563 11.0638 5.90209 10.8061L2.80606 7.53002C2.57542 7.27488 2.57542 6.88655 2.80606 6.63142L5.90209 3.35538ZM3.1999 13.9837H20.7999C21.2415 13.9837 21.5999 13.6253 21.5999 13.1837C21.5999 12.7421 21.2415 12.3837 20.7999 12.3837H3.1999C2.7583 12.3837 2.3999 12.7421 2.3999 13.1837C2.3999 13.6253 2.7583 13.9837 3.1999 13.9837ZM20.7999 20.1168H3.1999C2.7583 20.1168 2.3999 19.7584 2.3999 19.3168C2.3999 18.8752 2.7583 18.5168 3.1999 18.5168H20.7999C21.2415 18.5168 21.5999 18.8752 21.5999 19.3168C21.5999 19.7584 21.2415 20.1168 20.7999 20.1168Z" fill="white"/>
</svg>
