<svg width="20" height="20" viewBox="0 0 20 20" fill="none" xmlns="http://www.w3.org/2000/svg">
<path d="M13.75 13.3846V13.6897L13.963 13.9082L14.9713 14.9423H5.02874L6.037 13.9082L6.25 13.6897V13.3846V9.53846C6.25 7.41705 7.32266 5.82598 9.0521 5.40571L9.625 5.26649V4.67692V4.15385C9.625 3.91158 9.8095 3.75 10 3.75C10.1905 3.75 10.375 3.91158 10.375 4.15385V4.67692V5.26601L10.9473 5.40557C12.6703 5.82574 13.75 7.42542 13.75 9.53846V13.3846ZM10.2279 17.2115C10.1551 17.2366 10.0782 17.25 10 17.25C9.92049 17.25 9.84283 17.2366 9.76944 17.2115H10.2279Z" stroke="#82898E" stroke-width="1.5"/>
<circle cx="13.375" cy="5" r="2.5" fill="#EAFC40"/>
</svg>
