<svg width="20" height="20" viewBox="0 0 20 20" fill="none" xmlns="http://www.w3.org/2000/svg">
<g clip-path="url(#clip10)">
<path d="M12.7076 10.2221C13.0781 9.90132 13.3753 9.50462 13.579 9.05888C13.7827 8.61314 13.8881 8.1288 13.8881 7.63873C13.8881 6.71784 13.5223 5.83466 12.8711 5.18349C12.22 4.53233 11.3368 4.1665 10.4159 4.1665C9.49502 4.1665 8.61184 4.53233 7.96068 5.18349C7.30951 5.83466 6.94369 6.71784 6.94369 7.63873C6.94368 8.1288 7.0491 8.61314 7.2528 9.05888C7.4565 9.50462 7.7537 9.90132 8.12424 10.2221C7.15212 10.6623 6.32734 11.3731 5.74853 12.2697C5.16972 13.1662 4.86137 14.2105 4.86035 15.2776C4.86035 15.4618 4.93352 15.6384 5.06375 15.7687C5.19398 15.8989 5.37062 15.9721 5.5548 15.9721C5.73897 15.9721 5.91561 15.8989 6.04584 15.7687C6.17608 15.6384 6.24924 15.4618 6.24924 15.2776C6.24924 14.1725 6.68823 13.1127 7.46963 12.3313C8.25103 11.5499 9.31084 11.1109 10.4159 11.1109C11.521 11.1109 12.5808 11.5499 13.3622 12.3313C14.1436 13.1127 14.5826 14.1725 14.5826 15.2776C14.5826 15.4618 14.6557 15.6384 14.786 15.7687C14.9162 15.8989 15.0928 15.9721 15.277 15.9721C15.4612 15.9721 15.6378 15.8989 15.7681 15.7687C15.8983 15.6384 15.9715 15.4618 15.9715 15.2776C15.9704 14.2105 15.6621 13.1662 15.0833 12.2697C14.5045 11.3731 13.6797 10.6623 12.7076 10.2221ZM10.4159 9.72206C10.0039 9.72206 9.60107 9.59987 9.25847 9.37096C8.91587 9.14204 8.64884 8.81666 8.49116 8.43598C8.33348 8.0553 8.29222 7.63642 8.3726 7.23229C8.45299 6.82816 8.65141 6.45695 8.94277 6.16559C9.23413 5.87423 9.60534 5.67581 10.0095 5.59542C10.4136 5.51504 10.8325 5.5563 11.2132 5.71398C11.5938 5.87166 11.9192 6.13869 12.1481 6.48129C12.3771 6.82389 12.4992 7.22668 12.4992 7.63873C12.4992 8.19126 12.2797 8.72117 11.889 9.11187C11.4983 9.50257 10.9684 9.72206 10.4159 9.72206ZM17.1798 9.94428C17.6242 9.44382 17.9145 8.82557 18.0158 8.16396C18.117 7.50235 18.0249 6.82558 17.7505 6.21512C17.4761 5.60465 17.031 5.0865 16.469 4.72305C15.907 4.35959 15.2519 4.16633 14.5826 4.1665C14.3984 4.1665 14.2218 4.23967 14.0915 4.3699C13.9613 4.50014 13.8881 4.67677 13.8881 4.86095C13.8881 5.04513 13.9613 5.22176 14.0915 5.35199C14.2218 5.48223 14.3984 5.55539 14.5826 5.55539C15.1351 5.55539 15.665 5.77489 16.0557 6.16559C16.4464 6.55629 16.6659 7.08619 16.6659 7.63873C16.6649 8.00348 16.5682 8.36158 16.3854 8.67721C16.2026 8.99285 15.9401 9.25496 15.6242 9.43734C15.5213 9.49673 15.4353 9.58155 15.3745 9.68369C15.3137 9.78582 15.2801 9.90185 15.277 10.0207C15.2741 10.1386 15.3013 10.2553 15.356 10.3597C15.4106 10.4642 15.491 10.5531 15.5895 10.6179L15.8604 10.7984L15.9506 10.8471C16.7877 11.2441 17.4939 11.8721 17.986 12.657C18.4782 13.4419 18.7357 14.3512 18.7284 15.2776C18.7284 15.4618 18.8016 15.6384 18.9318 15.7687C19.062 15.8989 19.2387 15.9721 19.4229 15.9721C19.607 15.9721 19.7837 15.8989 19.9139 15.7687C20.0441 15.6384 20.1173 15.4618 20.1173 15.2776C20.123 14.2119 19.8561 13.1625 19.3419 12.229C18.8278 11.2956 18.0835 10.5091 17.1798 9.94428Z" fill="#82898E"/>
<path d="M3.58356 9.94564C3.16739 9.45107 2.89553 8.84009 2.80072 8.18627C2.70591 7.53244 2.79219 6.86364 3.04916 6.26035C3.30614 5.65706 3.72286 5.14501 4.24917 4.78584C4.77548 4.42666 5.38894 4.23566 6.01571 4.23584C6.18818 4.23584 6.35359 4.30814 6.47555 4.43685C6.5975 4.56555 6.66602 4.7401 6.66602 4.92211C6.66602 5.10413 6.5975 5.27868 6.47555 5.40738C6.35359 5.53609 6.18818 5.60839 6.01571 5.60839C5.49829 5.60839 5.00207 5.8253 4.6362 6.2114C4.27033 6.59751 4.06479 7.12118 4.06479 7.66721C4.06571 8.02767 4.15629 8.38156 4.32747 8.69348C4.49866 9.00541 4.74444 9.26444 5.04025 9.44466C5.13666 9.50335 5.21719 9.58718 5.27412 9.68811C5.33105 9.78905 5.36248 9.90371 5.3654 10.0211C5.36812 10.1376 5.34268 10.253 5.29149 10.3562C5.24029 10.4595 5.16501 10.5473 5.07276 10.6113L4.81914 10.7898L4.73461 10.8378C3.95073 11.2302 3.28942 11.8507 2.82857 12.6264C2.36772 13.4022 2.12652 14.3007 2.13338 15.2162C2.13338 15.3982 2.06486 15.5728 1.94291 15.7015C1.82095 15.8302 1.65554 15.9025 1.48307 15.9025C1.3106 15.9025 1.14519 15.8302 1.02324 15.7015C0.901279 15.5728 0.832765 15.3982 0.832765 15.2162C0.827449 14.1631 1.07739 13.126 1.55885 12.2035C2.04031 11.281 2.73729 10.5038 3.58356 9.94564Z" fill="#82898E"/>
</g>
<defs>
<clipPath id="clip10">
<rect width="20" height="20" fill="white"/>
</clipPath>
</defs>
</svg>
