<svg width="20" height="20" viewBox="0 0 20 20" fill="none" xmlns="http://www.w3.org/2000/svg">
<g clip-path="url(#clip0)">
<path d="M12.7086 10.2225C13.0791 9.90181 13.3763 9.50511 13.58 9.05937C13.7837 8.61363 13.8891 8.12929 13.8891 7.63921C13.8891 6.71832 13.5233 5.83515 12.8721 5.18398C12.2209 4.53281 11.3378 4.16699 10.4169 4.16699C9.49599 4.16699 8.61282 4.53281 7.96165 5.18398C7.31048 5.83515 6.94466 6.71832 6.94466 7.63921C6.94466 8.12929 7.05008 8.61363 7.25378 9.05937C7.45747 9.50511 7.75468 9.90181 8.12522 10.2225C7.15309 10.6627 6.32832 11.3736 5.74951 12.2701C5.1707 13.1667 4.86235 14.211 4.86133 15.2781C4.86133 15.4623 4.93449 15.6389 5.06473 15.7692C5.19496 15.8994 5.37159 15.9725 5.55577 15.9725C5.73995 15.9725 5.91659 15.8994 6.04682 15.7692C6.17705 15.6389 6.25022 15.4623 6.25022 15.2781C6.25022 14.173 6.6892 13.1132 7.47061 12.3318C8.25201 11.5504 9.31182 11.1114 10.4169 11.1114C11.522 11.1114 12.5818 11.5504 13.3632 12.3318C14.1446 13.1132 14.5836 14.173 14.5836 15.2781C14.5836 15.4623 14.6567 15.6389 14.787 15.7692C14.9172 15.8994 15.0938 15.9725 15.278 15.9725C15.4622 15.9725 15.6388 15.8994 15.769 15.7692C15.8993 15.6389 15.9724 15.4623 15.9724 15.2781C15.9714 14.211 15.6631 13.1667 15.0843 12.2701C14.5055 11.3736 13.6807 10.6627 12.7086 10.2225ZM10.4169 9.72255C10.0048 9.72255 9.60205 9.60036 9.25945 9.37144C8.91684 9.14252 8.64982 8.81715 8.49214 8.43647C8.33445 8.05579 8.2932 7.6369 8.37358 7.23278C8.45397 6.82865 8.65239 6.45744 8.94375 6.16608C9.2351 5.87472 9.60632 5.6763 10.0104 5.59591C10.4146 5.51553 10.8335 5.55678 11.2141 5.71447C11.5948 5.87215 11.9202 6.13917 12.1491 6.48178C12.378 6.82438 12.5002 7.22717 12.5002 7.63921C12.5002 8.19175 12.2807 8.72165 11.89 9.11235C11.4993 9.50306 10.9694 9.72255 10.4169 9.72255ZM17.1808 9.94477C17.6252 9.44431 17.9155 8.82606 18.0167 8.16445C18.118 7.50284 18.0259 6.82607 17.7514 6.2156C17.477 5.60514 17.032 5.08699 16.47 4.72354C15.908 4.36008 15.2529 4.16681 14.5836 4.16699C14.3994 4.16699 14.2227 4.24016 14.0925 4.37039C13.9623 4.50062 13.8891 4.67726 13.8891 4.86144C13.8891 5.04562 13.9623 5.22225 14.0925 5.35248C14.2227 5.48272 14.3994 5.55588 14.5836 5.55588C15.1361 5.55588 15.666 5.77538 16.0567 6.16608C16.4474 6.55678 16.6669 7.08668 16.6669 7.63921C16.6659 8.00396 16.5692 8.36206 16.3864 8.6777C16.2036 8.99334 15.9411 9.25545 15.6252 9.43783C15.5223 9.49722 15.4363 9.58204 15.3755 9.68417C15.3147 9.78631 15.2811 9.90234 15.278 10.0212C15.2751 10.1391 15.3023 10.2557 15.3569 10.3602C15.4116 10.4647 15.492 10.5536 15.5905 10.6184L15.8613 10.7989L15.9516 10.8475C16.7887 11.2446 17.4949 11.8725 17.987 12.6575C18.4791 13.4424 18.7367 14.3517 18.7294 15.2781C18.7294 15.4623 18.8025 15.6389 18.9328 15.7692C19.063 15.8994 19.2397 15.9725 19.4238 15.9725C19.608 15.9725 19.7846 15.8994 19.9149 15.7692C20.0451 15.6389 20.1183 15.4623 20.1183 15.2781C20.124 14.2124 19.857 13.163 19.3429 12.2295C18.8288 11.2961 18.0845 10.5096 17.1808 9.94477Z" fill="#82898E"/>
<path d="M3.58552 9.94613C3.16934 9.45156 2.89749 8.84058 2.80267 8.18676C2.70786 7.53293 2.79414 6.86412 3.05112 6.26084C3.30809 5.65755 3.72481 5.1455 4.25112 4.78632C4.77743 4.42715 5.39089 4.23615 6.01766 4.23633C6.19013 4.23633 6.35554 4.30863 6.4775 4.43733C6.59945 4.56603 6.66797 4.74059 6.66797 4.9226C6.66797 5.10461 6.59945 5.27917 6.4775 5.40787C6.35554 5.53657 6.19013 5.60888 6.01766 5.60888C5.50025 5.60888 5.00402 5.82579 4.63815 6.21189C4.27228 6.598 4.06674 7.12167 4.06674 7.6677C4.06766 8.02816 4.15824 8.38205 4.32943 8.69397C4.50061 9.0059 4.74639 9.26492 5.0422 9.44515C5.13862 9.50384 5.21915 9.58767 5.27608 9.6886C5.33301 9.78954 5.36444 9.9042 5.36736 10.0216C5.37008 10.1381 5.34464 10.2534 5.29344 10.3567C5.24224 10.46 5.16697 10.5478 5.07472 10.6118L4.8211 10.7903L4.73656 10.8383C3.95268 11.2306 3.29137 11.8512 2.83052 12.6269C2.36967 13.4026 2.12847 14.3012 2.13533 15.2167C2.13533 15.3987 2.06682 15.5733 1.94486 15.702C1.8229 15.8307 1.6575 15.903 1.48503 15.903C1.31255 15.903 1.14714 15.8307 1.02519 15.702C0.903233 15.5733 0.834718 15.3987 0.834718 15.2167C0.829402 14.1636 1.07935 13.1265 1.56081 12.204C2.04226 11.2815 2.73924 10.5043 3.58552 9.94613Z" fill="#82898E"/>
</g>
<defs>
<clipPath id="clip0">
<rect width="20" height="20" fill="white"/>
</clipPath>
</defs>
</svg>
