<svg width="20" height="20" viewBox="0 0 20 20" fill="none" xmlns="http://www.w3.org/2000/svg">
<mask id="path-1-outside-1" maskUnits="userSpaceOnUse" x="0.998047" y="1" width="18" height="17" fill="black">
<rect fill="white" x="0.998047" y="1" width="18" height="17"/>
<path fill-rule="evenodd" clip-rule="evenodd" d="M8.23236 17.3174C8.26502 17.3274 8.29902 17.3328 8.33236 17.3328C8.43902 17.3328 8.54169 17.2814 8.60502 17.1908L11.031 13.7313L15.5549 15.3147C15.5909 15.3274 15.6275 15.3334 15.6649 15.3334C15.7242 15.3334 15.7835 15.3174 15.8362 15.286C15.9209 15.2354 15.9789 15.1494 15.9942 15.052L17.9911 2.40502C18.0157 2.29379 17.9824 2.17266 17.893 2.08945C17.8288 2.02912 17.7466 1.99953 17.6645 2.00001C17.612 2.00008 17.5594 2.0126 17.5109 2.03802L2.17754 10.038C2.05954 10.0987 1.98954 10.2247 1.99888 10.3574C2.00888 10.49 2.09621 10.6047 2.22154 10.648L7.99902 12.6701V16.9994C7.99902 17.1448 8.09369 17.2734 8.23236 17.3174ZM8.66569 12.9035V15.9434L10.3777 13.5027L8.66569 12.9035ZM10.9917 13.011L8.85369 12.2627L17.1664 3.35584L15.3982 14.5534L11.0344 13.026C11.0204 13.0199 11.0061 13.015 10.9917 13.011ZM16.0937 3.52905L8.1667 12.0222L3.16821 10.2727L16.0937 3.52905Z"/>
</mask>
<path fill-rule="evenodd" clip-rule="evenodd" d="M8.23236 17.3174C8.26502 17.3274 8.29902 17.3328 8.33236 17.3328C8.43902 17.3328 8.54169 17.2814 8.60502 17.1908L11.031 13.7313L15.5549 15.3147C15.5909 15.3274 15.6275 15.3334 15.6649 15.3334C15.7242 15.3334 15.7835 15.3174 15.8362 15.286C15.9209 15.2354 15.9789 15.1494 15.9942 15.052L17.9911 2.40502C18.0157 2.29379 17.9824 2.17266 17.893 2.08945C17.8288 2.02912 17.7466 1.99953 17.6645 2.00001C17.612 2.00008 17.5594 2.0126 17.5109 2.03802L2.17754 10.038C2.05954 10.0987 1.98954 10.2247 1.99888 10.3574C2.00888 10.49 2.09621 10.6047 2.22154 10.648L7.99902 12.6701V16.9994C7.99902 17.1448 8.09369 17.2734 8.23236 17.3174ZM8.66569 12.9035V15.9434L10.3777 13.5027L8.66569 12.9035ZM10.9917 13.011L8.85369 12.2627L17.1664 3.35584L15.3982 14.5534L11.0344 13.026C11.0204 13.0199 11.0061 13.015 10.9917 13.011ZM16.0937 3.52905L8.1667 12.0222L3.16821 10.2727L16.0937 3.52905Z" fill="#82898E"/>
<path d="M8.23236 17.3174L8.14162 17.6034L8.14454 17.6043L8.23236 17.3174ZM8.60502 17.1908L8.3594 17.0185L8.35908 17.019L8.60502 17.1908ZM11.031 13.7313L11.1301 13.4482L10.9158 13.3732L10.7854 13.5591L11.031 13.7313ZM15.5549 15.3147L15.6544 15.0317L15.654 15.0315L15.5549 15.3147ZM15.8362 15.286L15.9896 15.5438L15.9903 15.5434L15.8362 15.286ZM15.9942 15.052L15.6979 15.0052L15.6979 15.0053L15.9942 15.052ZM17.9911 2.40502L17.6982 2.34021L17.6962 2.34917L17.6948 2.35824L17.9911 2.40502ZM17.893 2.08945L17.6875 2.30804L17.6886 2.30905L17.893 2.08945ZM17.6645 2.00001L17.6649 2.30001L17.6662 2.3L17.6645 2.00001ZM17.5109 2.03802L17.6496 2.30399L17.6501 2.30377L17.5109 2.03802ZM2.17754 10.038L2.31472 10.3048L2.31631 10.304L2.17754 10.038ZM1.99888 10.3574L1.69961 10.3784L1.69973 10.3799L1.99888 10.3574ZM2.22154 10.648L2.32065 10.3649L2.31957 10.3645L2.22154 10.648ZM7.99902 12.6701H8.29902V12.4573L8.09813 12.387L7.99902 12.6701ZM8.66569 12.9035L8.7648 12.6203L8.36569 12.4806V12.9035H8.66569ZM8.66569 15.9434H8.36569V16.8936L8.9113 16.1157L8.66569 15.9434ZM10.3777 13.5027L10.6233 13.6749L10.8509 13.3504L10.4768 13.2195L10.3777 13.5027ZM8.85369 12.2627L8.63437 12.058L8.32077 12.394L8.75458 12.5458L8.85369 12.2627ZM10.9917 13.011L10.8926 13.2942L10.9024 13.2976L10.9125 13.3004L10.9917 13.011ZM17.1664 3.35584L17.4627 3.40264L17.6155 2.43492L16.9471 3.15115L17.1664 3.35584ZM15.3982 14.5534L15.2991 14.8365L15.6385 14.9553L15.6945 14.6001L15.3982 14.5534ZM11.0344 13.026L10.9159 13.3015L10.9255 13.3057L10.9353 13.3091L11.0344 13.026ZM8.1667 12.0222L8.06759 12.3054L8.25241 12.3701L8.38601 12.2269L8.1667 12.0222ZM16.0937 3.52905L16.313 3.73375L15.9549 3.26308L16.0937 3.52905ZM3.16821 10.2727L3.02944 10.0067L2.41544 10.3271L3.0691 10.5558L3.16821 10.2727ZM8.33236 17.0328C8.33058 17.0328 8.32615 17.0324 8.32017 17.0306L8.14454 17.6043C8.2039 17.6225 8.26747 17.6328 8.33236 17.6328V17.0328ZM8.35908 17.019C8.35313 17.0275 8.34324 17.0328 8.33236 17.0328V17.6328C8.53481 17.6328 8.73026 17.5354 8.85096 17.3626L8.35908 17.019ZM10.7854 13.5591L8.3594 17.0185L8.85065 17.363L11.2767 13.9036L10.7854 13.5591ZM15.654 15.0315L11.1301 13.4482L10.9319 14.0145L15.4558 15.5978L15.654 15.0315ZM15.6649 15.0334C15.6604 15.0334 15.6575 15.0328 15.6544 15.0317L15.4553 15.5977C15.5243 15.6219 15.5947 15.6334 15.6649 15.6334V15.0334ZM15.6828 15.0282C15.6767 15.0318 15.6704 15.0334 15.6649 15.0334V15.6334C15.778 15.6334 15.8904 15.6029 15.9896 15.5438L15.6828 15.0282ZM15.6979 15.0053C15.6964 15.0149 15.6904 15.0236 15.6822 15.0286L15.9903 15.5434C16.1513 15.4471 16.2614 15.2838 16.2906 15.0987L15.6979 15.0053ZM17.6948 2.35824L15.6979 15.0052L16.2905 15.0988L18.2874 2.45181L17.6948 2.35824ZM17.6886 2.30905C17.697 2.31686 17.7008 2.32843 17.6982 2.34021L18.284 2.46984C18.3306 2.25915 18.2678 2.02846 18.0974 1.86984L17.6886 2.30905ZM17.6662 2.3C17.6751 2.29995 17.6821 2.30292 17.6876 2.30804L18.0985 1.87086C17.9756 1.75532 17.8181 1.69911 17.6627 1.70001L17.6662 2.3ZM17.6501 2.30377C17.6552 2.30111 17.6601 2.30001 17.6649 2.30001L17.6641 1.70001C17.564 1.70015 17.4636 1.7241 17.3717 1.77227L17.6501 2.30377ZM2.31631 10.304L17.6496 2.30399L17.3721 1.77204L2.03877 9.77204L2.31631 10.304ZM2.29814 10.3363C2.29711 10.3217 2.30499 10.3098 2.31471 10.3048L2.04037 9.77121C1.8141 9.88755 1.68198 10.1277 1.69962 10.3784L2.29814 10.3363ZM2.31957 10.3645C2.30898 10.3608 2.29917 10.3499 2.29803 10.3348L1.69973 10.3799C1.71859 10.6301 1.88344 10.8485 2.12351 10.9316L2.31957 10.3645ZM8.09813 12.387L2.32065 10.3649L2.12244 10.9312L7.89992 12.9533L8.09813 12.387ZM8.29902 16.9994V12.6701H7.69902V16.9994H8.29902ZM8.32309 17.0315C8.30826 17.0268 8.29902 17.0132 8.29902 16.9994H7.69902C7.69902 17.2763 7.87912 17.5201 8.14162 17.6034L8.32309 17.0315ZM8.36569 12.9035V15.9434H8.96569V12.9035H8.36569ZM8.9113 16.1157L10.6233 13.6749L10.1321 13.3304L8.42008 15.7712L8.9113 16.1157ZM10.4768 13.2195L8.7648 12.6203L8.56658 13.1866L10.2786 13.7858L10.4768 13.2195ZM8.75458 12.5458L10.8926 13.2942L11.0908 12.7278L8.95279 11.9795L8.75458 12.5458ZM16.9471 3.15115L8.63437 12.058L9.07301 12.4674L17.3857 3.56053L16.9471 3.15115ZM15.6945 14.6001L17.4627 3.40264L16.87 3.30905L15.1019 14.5066L15.6945 14.6001ZM10.9353 13.3091L15.2991 14.8365L15.4973 14.2702L11.1335 12.7428L10.9353 13.3091ZM10.9125 13.3004C10.9136 13.3007 10.9148 13.3011 10.9159 13.3015L11.153 12.7504C11.1261 12.7388 11.0986 12.7292 11.0709 12.7216L10.9125 13.3004ZM8.38601 12.2269L16.313 3.73375L15.8743 3.32436L7.94738 11.8175L8.38601 12.2269ZM3.0691 10.5558L8.06759 12.3054L8.26581 11.7391L3.26732 9.98953L3.0691 10.5558ZM15.9549 3.26308L3.02944 10.0067L3.30698 10.5387L16.2324 3.79503L15.9549 3.26308Z" fill="#82898E" mask="url(#path-1-outside-1)"/>
</svg>
