<svg width="20" height="20" viewBox="0 0 20 20" fill="none" xmlns="http://www.w3.org/2000/svg">
<mask id="path-3-outside-1" maskUnits="userSpaceOnUse" x="0.999023" y="1" width="18" height="17" fill="black">
<rect fill="white" x="0.999023" y="1" width="18" height="17"/>
<path fill-rule="evenodd" clip-rule="evenodd" d="M8.23333 17.3174C8.266 17.3274 8.3 17.3328 8.33333 17.3328C8.44 17.3328 8.54267 17.2814 8.606 17.1908L11.032 13.7313L15.5559 15.3147C15.5919 15.3274 15.6285 15.3334 15.6659 15.3334C15.7252 15.3334 15.7845 15.3174 15.8372 15.286C15.9219 15.2354 15.9799 15.1494 15.9952 15.052L17.9921 2.40502C18.0167 2.29379 17.9834 2.17266 17.894 2.08945C17.8298 2.02912 17.7476 1.99953 17.6655 2.00001C17.613 2.00008 17.5604 2.0126 17.5119 2.03802L2.17852 10.038C2.06052 10.0987 1.99052 10.2247 1.99985 10.3574C2.00985 10.49 2.09719 10.6047 2.22252 10.648L8 12.6701V16.9994C8 17.1448 8.09467 17.2734 8.23333 17.3174ZM8.66667 12.9035V15.9434L10.3786 13.5027L8.66667 12.9035ZM10.9926 13.011L8.85466 12.2627L17.1674 3.35584L15.3992 14.5534L11.0354 13.026C11.0214 13.0199 11.0071 13.015 10.9926 13.011ZM16.0946 3.52905L8.16767 12.0222L3.16919 10.2727L16.0946 3.52905Z"/>
</mask>
<path fill-rule="evenodd" clip-rule="evenodd" d="M8.23333 17.3174C8.266 17.3274 8.3 17.3328 8.33333 17.3328C8.44 17.3328 8.54267 17.2814 8.606 17.1908L11.032 13.7313L15.5559 15.3147C15.5919 15.3274 15.6285 15.3334 15.6659 15.3334C15.7252 15.3334 15.7845 15.3174 15.8372 15.286C15.9219 15.2354 15.9799 15.1494 15.9952 15.052L17.9921 2.40502C18.0167 2.29379 17.9834 2.17266 17.894 2.08945C17.8298 2.02912 17.7476 1.99953 17.6655 2.00001C17.613 2.00008 17.5604 2.0126 17.5119 2.03802L2.17852 10.038C2.06052 10.0987 1.99052 10.2247 1.99985 10.3574C2.00985 10.49 2.09719 10.6047 2.22252 10.648L8 12.6701V16.9994C8 17.1448 8.09467 17.2734 8.23333 17.3174ZM8.66667 12.9035V15.9434L10.3786 13.5027L8.66667 12.9035ZM10.9926 13.011L8.85466 12.2627L17.1674 3.35584L15.3992 14.5534L11.0354 13.026C11.0214 13.0199 11.0071 13.015 10.9926 13.011ZM16.0946 3.52905L8.16767 12.0222L3.16919 10.2727L16.0946 3.52905Z" fill="#82898E"/>
<path d="M8.23333 17.3174L8.1426 17.6034L8.14552 17.6043L8.23333 17.3174ZM8.606 17.1908L8.36038 17.0185L8.36006 17.019L8.606 17.1908ZM11.032 13.7313L11.1311 13.4482L10.9168 13.3732L10.7864 13.5591L11.032 13.7313ZM15.5559 15.3147L15.6554 15.0317L15.655 15.0315L15.5559 15.3147ZM15.8372 15.286L15.9906 15.5438L15.9912 15.5434L15.8372 15.286ZM15.9952 15.052L15.6989 15.0052L15.6988 15.0053L15.9952 15.052ZM17.9921 2.40502L17.6992 2.34021L17.6972 2.34917L17.6958 2.35824L17.9921 2.40502ZM17.894 2.08945L17.6885 2.30804L17.6896 2.30905L17.894 2.08945ZM17.6655 2.00001L17.6659 2.30001L17.6672 2.3L17.6655 2.00001ZM17.5119 2.03802L17.6506 2.30399L17.6511 2.30377L17.5119 2.03802ZM2.17852 10.038L2.31569 10.3048L2.31729 10.304L2.17852 10.038ZM1.99985 10.3574L1.70059 10.3784L1.7007 10.3799L1.99985 10.3574ZM2.22252 10.648L2.32163 10.3649L2.32055 10.3645L2.22252 10.648ZM8 12.6701H8.3V12.4573L8.0991 12.387L8 12.6701ZM8.66667 12.9035L8.76577 12.6203L8.36667 12.4806V12.9035H8.66667ZM8.66667 15.9434H8.36667V16.8936L8.91227 16.1157L8.66667 15.9434ZM10.3786 13.5027L10.6242 13.6749L10.8518 13.3504L10.4777 13.2195L10.3786 13.5027ZM8.85466 12.2627L8.63534 12.058L8.32175 12.394L8.75555 12.5458L8.85466 12.2627ZM10.9926 13.011L10.8935 13.2942L10.9034 13.2976L10.9134 13.3004L10.9926 13.011ZM17.1674 3.35584L17.4637 3.40264L17.6165 2.43492L16.948 3.15115L17.1674 3.35584ZM15.3992 14.5534L15.3001 14.8365L15.6394 14.9553L15.6955 14.6001L15.3992 14.5534ZM11.0354 13.026L10.9168 13.3015L10.9264 13.3057L10.9363 13.3091L11.0354 13.026ZM8.16767 12.0222L8.06857 12.3054L8.25338 12.3701L8.38699 12.2269L8.16767 12.0222ZM16.0946 3.52905L16.3139 3.73375L15.9559 3.26308L16.0946 3.52905ZM3.16919 10.2727L3.03042 10.0067L2.41642 10.3271L3.07008 10.5558L3.16919 10.2727ZM8.33333 17.0328C8.33155 17.0328 8.32712 17.0324 8.32115 17.0306L8.14552 17.6043C8.20488 17.6225 8.26845 17.6328 8.33333 17.6328V17.0328ZM8.36006 17.019C8.3541 17.0275 8.34421 17.0328 8.33333 17.0328V17.6328C8.53579 17.6328 8.73123 17.5354 8.85194 17.3626L8.36006 17.019ZM10.7864 13.5591L8.36038 17.0185L8.85162 17.363L11.2776 13.9036L10.7864 13.5591ZM15.655 15.0315L11.1311 13.4482L10.9329 14.0145L15.4567 15.5978L15.655 15.0315ZM15.6659 15.0334C15.6614 15.0334 15.6585 15.0328 15.6554 15.0317L15.4563 15.5977C15.5252 15.6219 15.5956 15.6334 15.6659 15.6334V15.0334ZM15.6838 15.0282C15.6777 15.0318 15.6714 15.0334 15.6659 15.0334V15.6334C15.779 15.6334 15.8914 15.6029 15.9906 15.5438L15.6838 15.0282ZM15.6988 15.0053C15.6973 15.0149 15.6914 15.0236 15.6831 15.0286L15.9912 15.5434C16.1523 15.4471 16.2624 15.2838 16.2915 15.0987L15.6988 15.0053ZM17.6958 2.35824L15.6989 15.0052L16.2915 15.0988L18.2884 2.45181L17.6958 2.35824ZM17.6896 2.30905C17.698 2.31686 17.7018 2.32843 17.6992 2.34021L18.285 2.46984C18.3316 2.25915 18.2688 2.02846 18.0984 1.86984L17.6896 2.30905ZM17.6672 2.3C17.6761 2.29995 17.6831 2.30292 17.6885 2.30804L18.0995 1.87086C17.9766 1.75532 17.8191 1.69911 17.6637 1.70001L17.6672 2.3ZM17.6511 2.30377C17.6561 2.30111 17.6611 2.30001 17.6659 2.30001L17.665 1.70001C17.565 1.70015 17.4646 1.7241 17.3727 1.77227L17.6511 2.30377ZM2.31729 10.304L17.6506 2.30399L17.3731 1.77204L2.03975 9.77204L2.31729 10.304ZM2.29911 10.3363C2.29808 10.3217 2.30597 10.3098 2.31569 10.3048L2.04135 9.77121C1.81507 9.88755 1.68296 10.1277 1.70059 10.3784L2.29911 10.3363ZM2.32055 10.3645C2.30996 10.3608 2.30014 10.3499 2.299 10.3348L1.7007 10.3799C1.71956 10.6301 1.88441 10.8485 2.12449 10.9316L2.32055 10.3645ZM8.0991 12.387L2.32163 10.3649L2.12342 10.9312L7.9009 12.9533L8.0991 12.387ZM8.3 16.9994V12.6701H7.7V16.9994H8.3ZM8.32407 17.0315C8.30924 17.0268 8.3 17.0132 8.3 16.9994H7.7C7.7 17.2763 7.8801 17.5201 8.1426 17.6034L8.32407 17.0315ZM8.36667 12.9035V15.9434H8.96667V12.9035H8.36667ZM8.91227 16.1157L10.6242 13.6749L10.133 13.3304L8.42106 15.7712L8.91227 16.1157ZM10.4777 13.2195L8.76577 12.6203L8.56756 13.1866L10.2795 13.7858L10.4777 13.2195ZM8.75555 12.5458L10.8935 13.2942L11.0917 12.7278L8.95377 11.9795L8.75555 12.5458ZM16.948 3.15115L8.63534 12.058L9.07398 12.4674L17.3867 3.56053L16.948 3.15115ZM15.6955 14.6001L17.4637 3.40264L16.871 3.30905L15.1029 14.5066L15.6955 14.6001ZM10.9363 13.3091L15.3001 14.8365L15.4983 14.2702L11.1345 12.7428L10.9363 13.3091ZM10.9134 13.3004C10.9146 13.3007 10.9157 13.3011 10.9168 13.3015L11.154 12.7504C11.1271 12.7388 11.0996 12.7292 11.0718 12.7216L10.9134 13.3004ZM8.38699 12.2269L16.3139 3.73375L15.8753 3.32436L7.94836 11.8175L8.38699 12.2269ZM3.07008 10.5558L8.06857 12.3054L8.26678 11.7391L3.2683 9.98953L3.07008 10.5558ZM15.9559 3.26308L3.03042 10.0067L3.30796 10.5387L16.2334 3.79503L15.9559 3.26308Z" fill="#82898E" mask="url(#path-3-outside-1)"/>
</svg>
