<svg width="39" height="32" viewBox="0 0 39 32" fill="none" xmlns="http://www.w3.org/2000/svg">
<path d="M0.399902 31.104V20.88C0.399902 16.944 1.0239 13.296 2.2719 9.936C3.6159 6.576 5.8719 3.264 9.0399 0L14.6559 4.17599C12.5439 6.47999 11.0079 8.64 10.0479 10.656C9.0879 12.576 8.5119 14.496 8.3199 16.416H15.0879V31.104H0.399902ZM24.3039 31.104V20.88C24.3039 16.944 24.9279 13.296 26.1759 9.936C27.5199 6.576 29.7759 3.264 32.9439 0L38.5599 4.17599C36.4479 6.47999 34.9119 8.64 33.9519 10.656C32.9919 12.576 32.4159 14.496 32.2239 16.416H38.9919V31.104H24.3039Z" fill="#1565D8"/>
</svg>
