<svg width="20" height="20" viewBox="0 0 20 20" fill="none" xmlns="http://www.w3.org/2000/svg">
<path d="M4.63379 1.6333C4.0815 1.6333 3.63379 2.08102 3.63379 2.6333V17.3C3.63379 17.8523 4.0815 18.3 4.63379 18.3H15.6773C16.2296 18.3 16.6773 17.8523 16.6773 17.3V6.19625L16.5754 6.08303L12.2275 1.7352L12.1143 1.6333H4.63379ZM4.35843 2.35794H11.6048V6.70576H15.9526V17.5753H4.35843V2.35794ZM12.3294 2.87877L15.4318 5.98113H12.3294V2.87877ZM6.53234 8.87968V9.60432H13.7787V8.87968H6.53234ZM6.53234 11.0536V11.7782H12.3294V11.0536H6.53234ZM6.53234 13.2275V13.9521H13.7787V13.2275H6.53234Z" fill="#82898E" stroke="#82898E" stroke-width="0.3"/>
</svg>
