<svg width="20" height="20" viewBox="0 0 20 20" fill="none" xmlns="http://www.w3.org/2000/svg">
<path d="M4.63281 1.63281C4.08053 1.63281 3.63281 2.08053 3.63281 2.63281V17.2995C3.63281 17.8518 4.08053 18.2995 4.63281 18.2995H15.6763C16.2286 18.2995 16.6763 17.8518 16.6763 17.2995V6.19577L16.5744 6.08254L12.2266 1.73471L12.1133 1.63281H4.63281ZM4.35745 2.35745H11.6038V6.70528H15.9517V17.5748H4.35745V2.35745ZM12.3285 2.87828L15.4308 5.98064H12.3285V2.87828ZM6.53136 8.87919V9.60383H13.7777V8.87919H6.53136ZM6.53136 11.0531V11.7777H12.3285V11.0531H6.53136ZM6.53136 13.227V13.9517H13.7777V13.227H6.53136Z" fill="#82898E" stroke="#82898E" stroke-width="0.3"/>
</svg>
