<svg width="17" height="16" viewBox="0 0 17 16" fill="none" xmlns="http://www.w3.org/2000/svg">
<circle cx="8.39648" cy="8" r="8" fill="#69A509"/>
<path d="M13.1888 4.39471C13.0849 4.3978 12.9863 4.44123 12.9138 4.5158L6.79662 10.633L4.27943 8.1158C4.24257 8.07741 4.19842 8.04676 4.14957 8.02565C4.10072 8.00453 4.04815 7.99338 3.99493 7.99284C3.94171 7.9923 3.88892 8.00238 3.83965 8.02249C3.79038 8.04261 3.74562 8.07235 3.70799 8.10999C3.67036 8.14762 3.64061 8.19238 3.6205 8.24165C3.60038 8.29092 3.5903 8.34371 3.59084 8.39693C3.59138 8.45014 3.60254 8.50272 3.62365 8.55157C3.64476 8.60042 3.67541 8.64457 3.7138 8.68142L6.5138 11.4814C6.58882 11.5564 6.69055 11.5985 6.79662 11.5985C6.90268 11.5985 7.00441 11.5564 7.07943 11.4814L13.4794 5.08142C13.5372 5.02524 13.5767 4.9529 13.5927 4.87389C13.6087 4.79489 13.6004 4.71289 13.569 4.63866C13.5376 4.56442 13.4845 4.50141 13.4166 4.45788C13.3488 4.41435 13.2694 4.39233 13.1888 4.39471Z" fill="white" stroke="white" stroke-width="0.4"/>
</svg>
