<svg width="20" height="20" viewBox="0 0 20 20" fill="none" xmlns="http://www.w3.org/2000/svg">
<path d="M10.2497 10.1832C10.6943 9.79828 11.051 9.32224 11.2954 8.78736C11.5398 8.25247 11.6663 7.67126 11.6663 7.08317C11.6663 5.9781 11.2274 4.91829 10.446 4.13689C9.66455 3.35549 8.60474 2.9165 7.49967 2.9165C6.39461 2.9165 5.3348 3.35549 4.5534 4.13689C3.77199 4.91829 3.33301 5.9781 3.33301 7.08317C3.333 7.67126 3.45951 8.25247 3.70395 8.78736C3.94838 9.32224 4.30503 9.79828 4.74967 10.1832C3.58312 10.7114 2.5934 11.5644 1.89882 12.6403C1.20425 13.7161 0.834234 14.9693 0.833008 16.2498C0.833008 16.4709 0.920805 16.6828 1.07709 16.8391C1.23337 16.9954 1.44533 17.0832 1.66634 17.0832C1.88735 17.0832 2.09932 16.9954 2.2556 16.8391C2.41188 16.6828 2.49967 16.4709 2.49967 16.2498C2.49967 14.9238 3.02646 13.652 3.96414 12.7143C4.90182 11.7766 6.17359 11.2498 7.49967 11.2498C8.82576 11.2498 10.0975 11.7766 11.0352 12.7143C11.9729 13.652 12.4997 14.9238 12.4997 16.2498C12.4997 16.4709 12.5875 16.6828 12.7438 16.8391C12.9 16.9954 13.112 17.0832 13.333 17.0832C13.554 17.0832 13.766 16.9954 13.9223 16.8391C14.0785 16.6828 14.1663 16.4709 14.1663 16.2498C14.1651 14.9693 13.7951 13.7161 13.1005 12.6403C12.406 11.5644 11.4162 10.7114 10.2497 10.1832ZM7.49967 9.58317C7.00522 9.58317 6.52187 9.43655 6.11075 9.16185C5.69963 8.88714 5.37919 8.4967 5.18998 8.03988C5.00076 7.58306 4.95125 7.0804 5.04771 6.59545C5.14417 6.11049 5.38228 5.66504 5.73191 5.3154C6.08154 4.96577 6.527 4.72767 7.01195 4.63121C7.4969 4.53474 7.99957 4.58425 8.45638 4.77347C8.9132 4.96269 9.30364 5.28312 9.57835 5.69425C9.85305 6.10537 9.99967 6.58872 9.99967 7.08317C9.99967 7.74621 9.73628 8.3821 9.26744 8.85094C8.7986 9.31978 8.16272 9.58317 7.49967 9.58317ZM15.6163 9.84984C16.1496 9.24928 16.498 8.50738 16.6195 7.71345C16.741 6.91952 16.6304 6.1074 16.3011 5.37484C15.9718 4.64228 15.4378 4.0205 14.7634 3.58436C14.089 3.14821 13.3028 2.91629 12.4997 2.9165C12.2787 2.9165 12.0667 3.0043 11.9104 3.16058C11.7541 3.31686 11.6663 3.52882 11.6663 3.74984C11.6663 3.97085 11.7541 4.18281 11.9104 4.33909C12.0667 4.49537 12.2787 4.58317 12.4997 4.58317C13.1627 4.58317 13.7986 4.84656 14.2674 5.3154C14.7363 5.78425 14.9997 6.42013 14.9997 7.08317C14.9985 7.52087 14.8824 7.95059 14.6631 8.32936C14.4437 8.70812 14.1287 9.02266 13.7497 9.2415C13.6261 9.31277 13.5229 9.41456 13.45 9.53712C13.377 9.65968 13.3367 9.79892 13.333 9.9415C13.3295 10.083 13.3621 10.223 13.4277 10.3484C13.4933 10.4738 13.5898 10.5804 13.708 10.6582L14.033 10.8748L14.1413 10.9332C15.1458 11.4096 15.9933 12.1632 16.5838 13.1051C17.1744 14.047 17.4835 15.1381 17.4747 16.2498C17.4747 16.4709 17.5625 16.6828 17.7188 16.8391C17.875 16.9954 18.087 17.0832 18.308 17.0832C18.529 17.0832 18.741 16.9954 18.8973 16.8391C19.0535 16.6828 19.1413 16.4709 19.1413 16.2498C19.1482 14.971 18.8279 13.7117 18.2109 12.5916C17.5939 11.4714 16.7008 10.5276 15.6163 9.84984Z" fill="#82898E"/>
</svg>
