<svg width="20" height="20" viewBox="0 0 20 20" fill="none" xmlns="http://www.w3.org/2000/svg">
<path d="M10.2507 10.1837C10.6953 9.79877 11.0519 9.32273 11.2964 8.78785C11.5408 8.25296 11.6673 7.67175 11.6673 7.08366C11.6673 5.97859 11.2283 4.91878 10.4469 4.13738C9.66553 3.35598 8.60572 2.91699 7.50065 2.91699C6.39558 2.91699 5.33577 3.35598 4.55437 4.13738C3.77297 4.91878 3.33398 5.97859 3.33398 7.08366C3.33398 7.67175 3.46049 8.25296 3.70492 8.78785C3.94936 9.32273 4.306 9.79877 4.75065 10.1837C3.5841 10.7119 2.59437 11.5649 1.8998 12.6408C1.20523 13.7166 0.835211 14.9698 0.833984 16.2503C0.833984 16.4713 0.921782 16.6833 1.07806 16.8396C1.23434 16.9959 1.4463 17.0837 1.66732 17.0837C1.88833 17.0837 2.10029 16.9959 2.25657 16.8396C2.41285 16.6833 2.50065 16.4713 2.50065 16.2503C2.50065 14.9242 3.02744 13.6525 3.96512 12.7148C4.9028 11.7771 6.17457 11.2503 7.50065 11.2503C8.82673 11.2503 10.0985 11.7771 11.0362 12.7148C11.9739 13.6525 12.5007 14.9242 12.5007 16.2503C12.5007 16.4713 12.5884 16.6833 12.7447 16.8396C12.901 16.9959 13.113 17.0837 13.334 17.0837C13.555 17.0837 13.767 16.9959 13.9232 16.8396C14.0795 16.6833 14.1673 16.4713 14.1673 16.2503C14.1661 14.9698 13.7961 13.7166 13.1015 12.6408C12.4069 11.5649 11.4172 10.7119 10.2507 10.1837ZM7.50065 9.58366C7.0062 9.58366 6.52285 9.43704 6.11173 9.16233C5.7006 8.88763 5.38017 8.49718 5.19095 8.04037C5.00173 7.58355 4.95222 7.08089 5.04869 6.59593C5.14515 6.11098 5.38325 5.66552 5.73288 5.31589C6.08252 4.96626 6.52797 4.72816 7.01293 4.6317C7.49788 4.53523 8.00054 4.58474 8.45736 4.77396C8.91418 4.96318 9.30462 5.28361 9.57932 5.69473C9.85403 6.10586 10.0007 6.58921 10.0007 7.08366C10.0007 7.7467 9.73726 8.38259 9.26842 8.85143C8.79958 9.32027 8.16369 9.58366 7.50065 9.58366ZM15.6173 9.85033C16.1506 9.24977 16.499 8.50787 16.6205 7.71394C16.742 6.92001 16.6314 6.10789 16.3021 5.37533C15.9728 4.64276 15.4388 4.02099 14.7644 3.58484C14.0899 3.1487 13.3038 2.91678 12.5007 2.91699C12.2796 2.91699 12.0677 3.00479 11.9114 3.16107C11.7551 3.31735 11.6673 3.52931 11.6673 3.75033C11.6673 3.97134 11.7551 4.1833 11.9114 4.33958C12.0677 4.49586 12.2796 4.58366 12.5007 4.58366C13.1637 4.58366 13.7996 4.84705 14.2684 5.31589C14.7373 5.78473 15.0007 6.42062 15.0007 7.08366C14.9995 7.52136 14.8834 7.95108 14.664 8.32984C14.4447 8.70861 14.1297 9.02314 13.7507 9.24199C13.6271 9.31326 13.5239 9.41505 13.451 9.53761C13.378 9.66017 13.3377 9.79941 13.334 9.94199C13.3305 10.0835 13.3631 10.2235 13.4287 10.3489C13.4943 10.4743 13.5908 10.5809 13.709 10.6587L14.034 10.8753L14.1423 10.9337C15.1468 11.4101 15.9942 12.1637 16.5848 13.1056C17.1754 14.0475 17.4844 15.1386 17.4757 16.2503C17.4757 16.4713 17.5634 16.6833 17.7197 16.8396C17.876 16.9959 18.088 17.0837 18.309 17.0837C18.53 17.0837 18.742 16.9959 18.8982 16.8396C19.0545 16.6833 19.1423 16.4713 19.1423 16.2503C19.1491 14.9715 18.8288 13.7122 18.2119 12.592C17.5949 11.4719 16.7018 10.5281 15.6173 9.85033Z" fill="#82898E"/>
</svg>
