<svg width="24" height="24" viewBox="0 0 24 24" fill="none" xmlns="http://www.w3.org/2000/svg">
<circle cx="12" cy="12" r="12" fill="#69A509"/>
<path d="M19.188 6.59401C19.0321 6.59866 18.8842 6.6638 18.7755 6.77565L9.59971 15.9514L5.82393 12.1757C5.76864 12.1181 5.70242 12.0721 5.62914 12.0404C5.55586 12.0088 5.477 11.992 5.39718 11.9912C5.31736 11.9904 5.23817 12.0055 5.16427 12.0357C5.09036 12.0659 5.02322 12.1105 4.96677 12.1669C4.91032 12.2234 4.86571 12.2905 4.83553 12.3644C4.80536 12.4383 4.79023 12.5175 4.79105 12.5973C4.79186 12.6772 4.80859 12.756 4.84026 12.8293C4.87193 12.9026 4.91791 12.9688 4.97549 13.0241L9.17549 17.2241C9.28802 17.3366 9.44061 17.3998 9.59971 17.3998C9.75881 17.3998 9.9114 17.3366 10.0239 17.2241L19.6239 7.62409C19.7106 7.53981 19.7698 7.43131 19.7938 7.3128C19.8178 7.19428 19.8054 7.07129 19.7583 6.95994C19.7112 6.84859 19.6315 6.75407 19.5297 6.68877C19.428 6.62348 19.3089 6.59045 19.188 6.59401Z" fill="white" stroke="white" stroke-width="0.4"/>
</svg>
