<svg width="24" height="24" viewBox="0 0 24 24" fill="none" xmlns="http://www.w3.org/2000/svg">
<path d="M12.1523 2.00211C9.25997 1.95883 6.64866 3.15654 4.79688 5.09L2.85352 3.14664C2.65852 2.95164 2.34148 2.95164 2.14648 3.14664C2.04848 3.24364 2 3.37216 2 3.50016V8.00016C2 8.26538 2.10536 8.51973 2.29289 8.70727C2.48043 8.8948 2.73478 9.00016 3 9.00016H7.5C7.628 9.00016 7.75552 8.95067 7.85352 8.85367C8.04852 8.65867 8.04852 8.34164 7.85352 8.14664L6.2168 6.50992C8.02806 4.60134 10.7519 3.56922 13.6914 4.17594C16.7664 4.81094 19.2318 7.30002 19.8398 10.381C20.8498 15.499 16.941 20.0002 12 20.0002C7.881 20.0002 4.47988 16.8704 4.04688 12.8654C3.99288 12.3684 3.5625 12.0002 3.0625 12.0002C2.4625 12.0002 1.9955 12.5253 2.0625 13.1213C2.6215 18.1093 6.866 22.0002 12 22.0002C18.136 22.0002 22.9993 16.4438 21.8223 10.0978C21.0773 6.07482 17.8171 2.86041 13.7871 2.15641C13.2347 2.06003 12.6888 2.01014 12.1523 2.00211ZM12 6.00016C11.448 6.00016 11 6.44816 11 7.00016V12.0002C11 12.2652 11.105 12.5202 11.293 12.7072L13.5859 15.0002C13.9759 15.3902 14.61 15.3902 15 15.0002C15.39 14.6102 15.39 13.9761 15 13.5861L13 11.5861V7.00016C13 6.44816 12.552 6.00016 12 6.00016Z" fill="white"/>
</svg>
