<svg width="12" height="12" viewBox="0 0 12 12" fill="none" xmlns="http://www.w3.org/2000/svg">
<path d="M6.07617 1.00106C4.62998 0.979415 3.32433 1.57827 2.39844 2.545L1.42676 1.57332C1.32926 1.47582 1.17074 1.47582 1.07324 1.57332C1.02424 1.62182 1 1.68608 1 1.75008V4.00008C1 4.13269 1.05268 4.25986 1.14645 4.35363C1.24021 4.4474 1.36739 4.50008 1.5 4.50008H3.75C3.814 4.50008 3.87776 4.47534 3.92676 4.42684C4.02426 4.32934 4.02426 4.17082 3.92676 4.07332L3.1084 3.25496C4.01403 2.30067 5.37594 1.78461 6.8457 2.08797C8.3832 2.40547 9.61592 3.65001 9.91992 5.19051C10.4249 7.74951 8.4705 10.0001 6 10.0001C3.9405 10.0001 2.23994 8.4352 2.02344 6.4327C1.99644 6.1842 1.78125 6.00008 1.53125 6.00008C1.23125 6.00008 0.99775 6.26263 1.03125 6.56063C1.31075 9.05463 3.433 11.0001 6 11.0001C9.068 11.0001 11.4996 8.22191 10.9111 5.04891C10.5386 3.03741 8.90856 1.4302 6.89355 1.0782C6.61737 1.03002 6.3444 1.00507 6.07617 1.00106ZM6 3.00008C5.724 3.00008 5.5 3.22408 5.5 3.50008V6.00008C5.5 6.13258 5.55248 6.2601 5.64648 6.3536L6.79297 7.50008C6.98797 7.69508 7.305 7.69508 7.5 7.50008C7.695 7.30508 7.695 6.98805 7.5 6.79305L6.5 5.79305V3.50008C6.5 3.22408 6.276 3.00008 6 3.00008Z" fill="#82898E"/>
</svg>
