<svg width="20" height="20" viewBox="0 0 20 20" fill="none" xmlns="http://www.w3.org/2000/svg">
<path d="M4.40945 8.62874L4.40944 8.62873C3.61547 7.4356 3.13973 5.87782 3.05221 4.1923H4.48216C4.65901 6.30628 5.16055 8.26272 5.94111 9.82371C6.01887 9.97924 6.09887 10.1295 6.1809 10.2746C5.52984 9.95711 4.92334 9.40116 4.40945 8.62874ZM15.5907 8.62873L15.5907 8.62874C15.0768 9.40116 14.4703 9.95711 13.8192 10.2746C13.9013 10.1295 13.9813 9.97924 14.059 9.82371C14.8396 8.26271 15.341 6.30627 15.518 4.1923H16.9479C16.8604 5.87782 16.3847 7.4356 15.5907 8.62873ZM6.9585 9.31495L6.86906 9.35968L6.9585 9.31495C6.11719 7.63246 5.62379 5.42171 5.55601 3.03751H14.4441C14.3762 5.42171 13.8828 7.63258 13.0416 9.31495C12.7585 9.88112 12.4497 10.3604 12.1232 10.749C12.0992 10.7724 12.0772 10.798 12.0577 10.8255C11.7299 11.2007 11.386 11.4834 11.0341 11.6703C11.0107 11.6802 10.9888 11.6916 10.9683 11.7036C10.6504 11.8612 10.3262 11.9417 10.0001 11.9417C9.67412 11.9417 9.35007 11.8613 9.03233 11.704C9.0113 11.6915 8.98924 11.6801 8.96598 11.6702C8.61401 11.4833 8.27015 11.2005 7.94225 10.8252C7.92278 10.798 7.90108 10.7726 7.87715 10.7491C7.55047 10.3605 7.24161 9.88117 6.9585 9.31495ZM17.5314 3.05479H15.5812C15.5867 2.86042 15.5897 2.66502 15.5897 2.46875C15.5897 2.15459 15.335 1.9 15.021 1.9H4.97915C4.66515 1.9 4.4104 2.1546 4.4104 2.46875C4.4104 2.66502 4.41341 2.86042 4.4189 3.05479H2.46875C2.15461 3.05479 1.9 3.30941 1.9 3.62355C1.9 5.74024 2.45305 7.74187 3.46241 9.25882C4.45106 10.7448 5.7737 11.615 7.21479 11.7136C7.51918 12.0403 7.84063 12.3116 8.17605 12.5242V14.4521H7.48967C6.48374 14.4521 5.66565 15.2703 5.66565 16.2761V16.9664C5.38292 16.9994 5.16357 17.2398 5.16357 17.5312C5.16357 17.8454 5.41819 18.1 5.73233 18.1H14.2678C14.5819 18.1 14.8365 17.8454 14.8365 17.5312C14.8365 17.2398 14.6172 16.9994 14.3345 16.9664V16.2761C14.3345 15.2703 13.5164 14.4521 12.5105 14.4521H11.8241V12.5242C12.1595 12.3117 12.4811 12.0403 12.7855 11.7136C14.2264 11.615 15.5491 10.7448 16.5378 9.25882C17.5472 7.74187 18.1001 5.74024 18.1001 3.62355C18.1001 3.30941 17.8455 3.05479 17.5314 3.05479ZM13.197 16.2761V16.9626H6.80316V16.2761C6.80316 15.8977 7.11119 15.5896 7.48967 15.5896H12.5105C12.8889 15.5896 13.197 15.8977 13.197 16.2761ZM9.31356 14.4521V13.0032C9.53896 13.0533 9.76808 13.0792 10.0001 13.0792C10.232 13.0792 10.4612 13.0533 10.6866 13.0032V14.4521H9.31356Z" fill="#82898E" stroke="#82898E" stroke-width="0.2"/>
</svg>
