<svg width="20" height="20" viewBox="0 0 20 20" fill="none" xmlns="http://www.w3.org/2000/svg">
<path d="M12.7507 10.1837C13.1953 9.79877 13.5519 9.32273 13.7964 8.78785C14.0408 8.25296 14.1673 7.67175 14.1673 7.08366C14.1673 5.97859 13.7283 4.91878 12.9469 4.13738C12.1655 3.35598 11.1057 2.91699 10.0007 2.91699C8.89558 2.91699 7.83577 3.35598 7.05437 4.13738C6.27297 4.91878 5.83398 5.97859 5.83398 7.08366C5.83398 7.67175 5.96049 8.25296 6.20492 8.78785C6.44936 9.32273 6.806 9.79877 7.25065 10.1837C6.0841 10.7119 5.09437 11.5649 4.3998 12.6408C3.70523 13.7166 3.33521 14.9698 3.33398 16.2503C3.33398 16.4713 3.42178 16.6833 3.57806 16.8396C3.73434 16.9959 3.9463 17.0837 4.16732 17.0837C4.38833 17.0837 4.60029 16.9959 4.75657 16.8396C4.91285 16.6833 5.00065 16.4713 5.00065 16.2503C5.00065 14.9242 5.52744 13.6525 6.46512 12.7148C7.4028 11.7771 8.67457 11.2503 10.0007 11.2503C11.3267 11.2503 12.5985 11.7771 13.5362 12.7148C14.4739 13.6525 15.0006 14.9242 15.0007 16.2503C15.0007 16.4713 15.0884 16.6833 15.2447 16.8396C15.401 16.9959 15.613 17.0837 15.834 17.0837C16.055 17.0837 16.267 16.9959 16.4232 16.8396C16.5795 16.6833 16.6673 16.4713 16.6673 16.2503C16.6661 14.9698 16.2961 13.7166 15.6015 12.6408C14.9069 11.5649 13.9172 10.7119 12.7507 10.1837ZM10.0007 9.58366C9.5062 9.58366 9.02285 9.43704 8.61172 9.16233C8.2006 8.88763 7.88017 8.49718 7.69095 8.04037C7.50173 7.58355 7.45222 7.08089 7.54869 6.59593C7.64515 6.11098 7.88325 5.66552 8.23288 5.31589C8.58251 4.96626 9.02797 4.72816 9.51292 4.6317C9.99788 4.53523 10.5005 4.58474 10.9574 4.77396C11.4142 4.96318 11.8046 5.28361 12.0793 5.69473C12.354 6.10586 12.5007 6.58921 12.5007 7.08366C12.5007 7.7467 12.2373 8.38259 11.7684 8.85143C11.2996 9.32027 10.6637 9.58366 10.0007 9.58366Z" fill="#82898E"/>
</svg>
