<svg width="108" height="108" viewBox="0 0 108 108" fill="none" xmlns="http://www.w3.org/2000/svg">
<g filter="url(#filter0_d)">
<circle cx="48" cy="54" r="36" fill="#383C40" fill-opacity="0.5"/>
</g>
<path d="M48.4007 54.2927C49.1121 53.6769 49.6827 52.9152 50.0738 52.0594C50.4649 51.2036 50.6673 50.2736 50.6673 49.3327C50.6673 47.5646 49.9649 45.8689 48.7147 44.6186C47.4645 43.3684 45.7688 42.666 44.0007 42.666C42.2325 42.666 40.5368 43.3684 39.2866 44.6186C38.0364 45.8689 37.334 47.5646 37.334 49.3327C37.334 50.2736 37.5364 51.2036 37.9275 52.0594C38.3186 52.9152 38.8892 53.6769 39.6007 54.2927C37.7342 55.1379 36.1506 56.5027 35.0393 58.2241C33.928 59.9454 33.3359 61.9504 33.334 63.9993C33.334 64.353 33.4745 64.6921 33.7245 64.9422C33.9746 65.1922 34.3137 65.3327 34.6673 65.3327C35.0209 65.3327 35.3601 65.1922 35.6101 64.9422C35.8602 64.6921 36.0007 64.353 36.0007 63.9993C36.0007 61.8776 36.8435 59.8428 38.3438 58.3425C39.8441 56.8422 41.8789 55.9993 44.0007 55.9993C46.1224 55.9993 48.1572 56.8422 49.6575 58.3425C51.1578 59.8428 52.0007 61.8776 52.0007 63.9993C52.0007 64.353 52.1411 64.6921 52.3912 64.9422C52.6412 65.1922 52.9804 65.3327 53.334 65.3327C53.6876 65.3327 54.0267 65.1922 54.2768 64.9422C54.5268 64.6921 54.6673 64.353 54.6673 63.9993C54.6654 61.9504 54.0733 59.9454 52.962 58.2241C51.8507 56.5027 50.2671 55.1379 48.4007 54.2927ZM44.0007 53.3327C43.2095 53.3327 42.4362 53.0981 41.7784 52.6586C41.1206 52.219 40.6079 51.5943 40.3051 50.8634C40.0024 50.1325 39.9232 49.3282 40.0775 48.5523C40.2319 47.7764 40.6128 47.0637 41.1722 46.5043C41.7316 45.9448 42.4444 45.5639 43.2203 45.4095C43.9962 45.2552 44.8005 45.3344 45.5314 45.6372C46.2623 45.9399 46.887 46.4526 47.3265 47.1104C47.7661 47.7682 48.0007 48.5416 48.0007 49.3327C48.0007 50.3935 47.5792 51.411 46.8291 52.1611C46.0789 52.9113 45.0615 53.3327 44.0007 53.3327ZM56.9873 53.7593C57.8406 52.7985 58.398 51.6114 58.5924 50.3411C58.7868 49.0708 58.6099 47.7714 58.083 46.5993C57.5561 45.4273 56.7017 44.4324 55.6226 43.7346C54.5435 43.0367 53.2857 42.6657 52.0007 42.666C51.647 42.666 51.3079 42.8065 51.0578 43.0565C50.8078 43.3066 50.6673 43.6457 50.6673 43.9993C50.6673 44.353 50.8078 44.6921 51.0578 44.9422C51.3079 45.1922 51.647 45.3327 52.0007 45.3327C53.0615 45.3327 54.0789 45.7541 54.8291 46.5043C55.5792 47.2544 56.0007 48.2718 56.0007 49.3327C55.9988 50.033 55.813 50.7206 55.4621 51.3266C55.1111 51.9326 54.6071 52.4359 54.0007 52.786C53.803 52.9 53.6379 53.0629 53.5211 53.259C53.4044 53.4551 53.34 53.6779 53.334 53.906C53.3284 54.1324 53.3806 54.3564 53.4855 54.557C53.5905 54.7576 53.7448 54.9282 53.934 55.0527L54.454 55.3993L54.6273 55.4927C56.2345 56.255 57.5904 57.4607 58.5353 58.9678C59.4802 60.4749 59.9747 62.2206 59.9607 63.9993C59.9607 64.353 60.1011 64.6921 60.3512 64.9422C60.6012 65.1922 60.9404 65.3327 61.294 65.3327C61.6476 65.3327 61.9867 65.1922 62.2368 64.9422C62.4868 64.6921 62.6273 64.353 62.6273 63.9993C62.6382 61.9533 62.1257 59.9384 61.1386 58.1461C60.1515 56.3538 58.7224 54.8438 56.9873 53.7593Z" fill="#82898E"/>
<defs>
<filter id="filter0_d" x="0" y="0" width="108" height="108" filterUnits="userSpaceOnUse" color-interpolation-filters="sRGB">
<feFlood flood-opacity="0" result="BackgroundImageFix"/>
<feColorMatrix in="SourceAlpha" type="matrix" values="0 0 0 0 0 0 0 0 0 0 0 0 0 0 0 0 0 0 127 0" result="hardAlpha"/>
<feOffset dx="6"/>
<feGaussianBlur stdDeviation="9"/>
<feColorMatrix type="matrix" values="0 0 0 0 0 0 0 0 0 0 0 0 0 0 0 0 0 0 0.06 0"/>
<feBlend mode="normal" in2="BackgroundImageFix" result="effect1_dropShadow"/>
<feBlend mode="normal" in="SourceGraphic" in2="effect1_dropShadow" result="shape"/>
</filter>
</defs>
</svg>
