<svg width="20" height="20" viewBox="0 0 20 20" fill="none" xmlns="http://www.w3.org/2000/svg">
<path d="M12.7497 10.1832C13.1943 9.79828 13.551 9.32224 13.7954 8.78736C14.0398 8.25247 14.1663 7.67126 14.1663 7.08317C14.1663 5.9781 13.7274 4.91829 12.946 4.13689C12.1645 3.35549 11.1047 2.9165 9.99967 2.9165C8.89461 2.9165 7.8348 3.35549 7.0534 4.13689C6.27199 4.91829 5.83301 5.9781 5.83301 7.08317C5.833 7.67126 5.95951 8.25247 6.20395 8.78736C6.44838 9.32224 6.80503 9.79828 7.24967 10.1832C6.08312 10.7114 5.0934 11.5644 4.39882 12.6403C3.70425 13.7161 3.33423 14.9693 3.33301 16.2498C3.33301 16.4709 3.42081 16.6828 3.57709 16.8391C3.73337 16.9954 3.94533 17.0832 4.16634 17.0832C4.38735 17.0832 4.59932 16.9954 4.7556 16.8391C4.91188 16.6828 4.99967 16.4709 4.99967 16.2498C4.99967 14.9238 5.52646 13.652 6.46414 12.7143C7.40182 11.7766 8.67359 11.2498 9.99967 11.2498C11.3258 11.2498 12.5975 11.7766 13.5352 12.7143C14.4729 13.652 14.9997 14.9238 14.9997 16.2498C14.9997 16.4709 15.0875 16.6828 15.2438 16.8391C15.4 16.9954 15.612 17.0832 15.833 17.0832C16.054 17.0832 16.266 16.9954 16.4223 16.8391C16.5785 16.6828 16.6663 16.4709 16.6663 16.2498C16.6651 14.9693 16.2951 13.7161 15.6005 12.6403C14.906 11.5644 13.9162 10.7114 12.7497 10.1832ZM9.99967 9.58317C9.50522 9.58317 9.02187 9.43655 8.61075 9.16185C8.19963 8.88714 7.87919 8.4967 7.68998 8.03988C7.50076 7.58306 7.45125 7.0804 7.54771 6.59545C7.64417 6.11049 7.88228 5.66504 8.23191 5.3154C8.58154 4.96577 9.027 4.72767 9.51195 4.63121C9.9969 4.53474 10.4996 4.58425 10.9564 4.77347C11.4132 4.96269 11.8036 5.28312 12.0783 5.69425C12.3531 6.10537 12.4997 6.58872 12.4997 7.08317C12.4997 7.74621 12.2363 8.3821 11.7674 8.85094C11.2986 9.31978 10.6627 9.58317 9.99967 9.58317Z" fill="#82898E"/>
</svg>
