<svg width="24" height="24" viewBox="0 0 24 24" fill="none" xmlns="http://www.w3.org/2000/svg">
<path d="M13.2 12.449L13.6545 9.5H15L13.9385 14.5H12.75L12.0025 11.531L11.2525 14.5H10.064L9 9.5H10.3475L10.793 12.5175L11.51 9.5H12.4895L13.2 12.449ZM6.2 12.449L6.6545 9.5H8L6.9385 14.5H5.75L5.0025 11.531L4.2525 14.5H3.064L2 9.5H3.3475L3.793 12.5175L4.51 9.5H5.4895L6.2 12.449ZM20.2 12.449L20.6545 9.5H22L20.9385 14.5H19.75L19.0025 11.531L18.2525 14.5H17.064L16 9.5H17.3475L17.793 12.5175L18.51 9.5H19.4895L20.2 12.449Z" fill="white"/>
<path d="M4.25 6H19.75V7H4.25V6Z" fill="#2196F3"/>
<path d="M4.25 6H19.75V7H4.25V6ZM4.25 17H19.75V18H4.25V17Z" fill="#2196F3"/>
<path d="M3.71303 8.5C4.75553 6.0445 6.85753 4.143 9.44403 3.375C8.46153 4.524 7.70403 6.324 7.30753 8.5H8.33153C8.88803 5.6405 10.091 3.499 11.5 3.082V8.5H12.5V3.082C13.909 3.4985 15.112 5.6405 15.6685 8.5H16.6925C16.296 6.324 15.5385 4.524 14.556 3.375C17.1425 4.143 19.2445 6.0445 20.287 8.5H21.3555C19.9325 4.7095 16.2815 2 12 2C7.71853 2 4.06753 4.7095 2.64453 8.5H3.71303ZM20.287 15.5C19.2445 17.9555 17.1425 19.857 14.556 20.625C15.5385 19.476 16.296 17.676 16.6925 15.5H15.6685C15.112 18.3595 13.909 20.501 12.5 20.918V15.5H11.5V20.918C10.091 20.5015 8.88803 18.3595 8.33153 15.5H7.30753C7.70403 17.676 8.46153 19.476 9.44403 20.625C6.85753 19.857 4.75553 17.9555 3.71303 15.5H2.64453C4.06753 19.2905 7.71853 22 12 22C16.2815 22 19.9325 19.2905 21.3555 15.5H20.287Z" fill="#2196F3"/>
</svg>
