<svg width="16" height="16" viewBox="0 0 16 16" fill="none" xmlns="http://www.w3.org/2000/svg">
<circle cx="8" cy="8" r="8" fill="#0890E2"/>
<path d="M12.7921 4.39617C12.6882 4.39927 12.5895 4.4427 12.5171 4.51726L6.39989 10.6345L3.8827 8.11726C3.84584 8.07887 3.80169 8.04823 3.75284 8.02711C3.70399 8.006 3.65142 7.99484 3.5982 7.9943C3.54499 7.99376 3.4922 8.00384 3.44293 8.02396C3.39365 8.04407 3.34889 8.07382 3.31126 8.11145C3.27363 8.14908 3.24388 8.19384 3.22377 8.24311C3.20365 8.29239 3.19357 8.34517 3.19411 8.39839C3.19465 8.45161 3.20581 8.50418 3.22692 8.55303C3.24804 8.60188 3.27869 8.64603 3.31707 8.68289L6.11707 11.4829C6.19209 11.5579 6.29382 11.6 6.39989 11.6C6.50596 11.6 6.60768 11.5579 6.6827 11.4829L13.0827 5.08289C13.1405 5.0267 13.18 4.95437 13.196 4.87536C13.2119 4.79635 13.2037 4.71436 13.1723 4.64012C13.1409 4.56589 13.0877 4.50288 13.0199 4.45935C12.9521 4.41581 12.8726 4.39379 12.7921 4.39617Z" fill="white" stroke="white" stroke-width="0.4"/>
</svg>
