<svg width="16" height="16" viewBox="0 0 16 16" fill="none" xmlns="http://www.w3.org/2000/svg">
<g opacity="0.5">
<circle cx="8" cy="8" r="8" fill="#FF6557"/>
<path d="M4.99504 4.49533C4.89557 4.49536 4.79837 4.52505 4.71587 4.58061C4.63336 4.63616 4.5693 4.71506 4.53187 4.80722C4.49444 4.89938 4.48535 5.0006 4.50575 5.09795C4.52615 5.1953 4.57512 5.28436 4.6464 5.35373L7.29289 8.00022L4.6464 10.6467C4.59842 10.6928 4.56011 10.748 4.53371 10.809C4.50732 10.8701 4.49338 10.9358 4.4927 11.0023C4.49202 11.0688 4.50463 11.1348 4.52977 11.1964C4.55492 11.258 4.5921 11.314 4.63914 11.361C4.68618 11.408 4.74213 11.4452 4.80372 11.4704C4.86531 11.4955 4.93129 11.5081 4.99781 11.5074C5.06433 11.5068 5.13005 11.4928 5.19111 11.4664C5.25218 11.44 5.30736 11.4017 5.35344 11.3537L7.99992 8.70725L10.6464 11.3537C10.6925 11.4017 10.7477 11.44 10.8087 11.4664C10.8698 11.4928 10.9355 11.5068 11.002 11.5074C11.0685 11.5081 11.1345 11.4955 11.1961 11.4704C11.2577 11.4452 11.3137 11.408 11.3607 11.361C11.4077 11.314 11.4449 11.258 11.4701 11.1964C11.4952 11.1348 11.5078 11.0688 11.5071 11.0023C11.5065 10.9358 11.4925 10.8701 11.4661 10.809C11.4397 10.748 11.4014 10.6928 11.3534 10.6467L8.70695 8.00022L11.3534 5.35373C11.4257 5.2835 11.475 5.19308 11.495 5.09432C11.515 4.99556 11.5047 4.89307 11.4654 4.80028C11.4261 4.70748 11.3597 4.62872 11.2749 4.5743C11.1901 4.51989 11.0909 4.49236 10.9902 4.49533C10.8603 4.49921 10.737 4.55349 10.6464 4.6467L7.99992 7.29319L5.35344 4.6467C5.30684 4.5988 5.25112 4.56073 5.18956 4.53473C5.128 4.50874 5.06186 4.49534 4.99504 4.49533Z" fill="white" stroke="white" stroke-width="0.4"/>
</g>
</svg>
