<svg width="450" height="611" viewBox="0 0 450 611" fill="none" xmlns="http://www.w3.org/2000/svg">
<path fill-rule="evenodd" clip-rule="evenodd" d="M264 392.5H263L201.993 520.347C192.112 509.604 177.938 502.872 162.191 502.872C146.596 502.872 132.543 509.476 122.676 520.039C120.155 488.423 93.6999 463.553 61.4362 463.553C27.5059 463.553 0 491.059 0 524.989C0 558.92 27.5059 586.426 61.4362 586.426C80.4011 586.426 97.3591 577.832 108.629 564.327C112.232 590.689 134.84 611 162.191 611C192.05 611 216.255 586.795 216.255 556.936C216.255 553.579 215.949 550.294 215.364 547.106H320.36C319.774 550.294 319.468 553.579 319.468 556.936C319.468 586.795 343.673 611 373.532 611C398.024 611 418.713 594.713 425.358 572.38C435.981 581.154 449.603 586.426 464.457 586.426C498.388 586.426 525.894 558.92 525.894 524.989C525.894 491.059 498.388 463.553 464.457 463.553C434.816 463.553 410.077 484.545 404.297 512.473C395.564 506.42 384.962 502.872 373.532 502.872C356.567 502.872 341.428 510.686 331.516 522.911L264 392.5Z" fill="#1D262D"/>
<path d="M263.5 36.4873C257.555 36.4873 251.405 39.2972 244.36 43.7359C237.295 48.1543 229.66 54.4664 222.513 62.3055C208.199 77.9633 195.738 99.9128 195.738 125.1V204L155.137 250.648C147.705 259.179 143.613 270.113 143.613 281.434V297.112C143.613 299.983 145.954 302.325 148.825 302.325H198.975C201.337 306.316 204.758 309.533 209.135 311.223C207.425 314.012 206.163 317.087 206.163 320.569C206.163 330.586 214.389 338.812 224.406 338.812H227.318C230.413 370.495 260.609 390.062 260.609 390.062L263.5 391.996L266.391 390.062C266.391 390.062 296.587 370.495 299.682 338.812H302.594C312.612 338.812 320.838 330.586 320.838 320.569C320.838 317.087 319.575 314.012 317.865 311.223C322.242 309.533 325.663 306.316 328.025 302.325H378.175C381.046 302.325 383.388 299.983 383.388 297.112V281.434C383.388 270.113 379.295 259.179 371.863 250.648L331.263 204V125.1C331.263 99.9128 318.801 77.9633 304.487 62.3055C297.341 54.4664 289.705 48.1543 282.64 43.7359C275.595 39.2972 269.446 36.4873 263.5 36.4873ZM263.5 46.9123C265.373 46.9123 270.952 48.6634 277.101 52.532C283.23 56.421 290.255 62.1629 296.791 69.3098C309.842 83.6238 320.838 103.374 320.838 125.1V205.934C320.838 206.362 320.899 206.789 321 207.217C320.899 207.645 320.838 208.072 320.838 208.5C320.838 211.33 323.077 213.631 325.908 213.712L364.004 257.489C369.786 264.127 372.963 272.638 372.963 281.434V291.9H331.263C331.263 291.717 331.242 291.554 331.242 291.391C330.957 288.723 328.717 286.687 326.05 286.687C323.22 286.687 320.899 288.947 320.838 291.798C320.838 291.818 320.838 291.859 320.838 291.9C320.838 297.723 316.236 302.325 310.413 302.325H302.594C302.248 302.325 301.902 302.366 301.555 302.447C301.209 302.528 300.883 302.63 300.558 302.752C299.926 303.037 299.356 303.445 298.868 303.954C298.644 304.198 298.42 304.483 298.236 304.768C298.053 305.074 297.89 305.379 297.789 305.725C297.361 306.865 297.341 308.128 297.768 309.288C297.809 309.451 297.89 309.614 297.951 309.777C298.481 310.877 299.397 311.772 300.497 312.281C300.822 312.424 301.148 312.546 301.494 312.607C301.657 312.648 301.84 312.689 302.003 312.709C302.207 312.729 302.39 312.75 302.594 312.75C306.971 312.75 310.413 316.191 310.413 320.569C310.413 324.946 306.971 328.387 302.594 328.387H224.406C220.029 328.387 216.588 324.946 216.588 320.569C216.588 316.191 220.029 312.75 224.406 312.75C224.936 312.75 225.445 312.648 225.954 312.505C226.28 312.383 226.605 312.241 226.911 312.078C227.664 311.65 228.295 311.039 228.764 310.306C228.845 310.144 228.927 310.001 229.008 309.838C229.089 309.675 229.15 309.533 229.212 309.349C229.456 308.698 229.578 308.006 229.537 307.313C229.537 307.13 229.517 306.967 229.497 306.804C229.415 306.275 229.273 305.766 229.049 305.298C228.967 305.135 228.886 304.992 228.804 304.85C228.703 304.687 228.601 304.544 228.499 304.422C228.397 304.28 228.295 304.137 228.173 304.015C227.929 303.75 227.664 303.526 227.399 303.302C227.257 303.221 227.094 303.119 226.951 303.037C226.504 302.773 226.015 302.569 225.506 302.467C225.343 302.427 225.16 302.386 224.997 302.366C224.793 302.345 224.61 302.325 224.406 302.325H216.588C210.764 302.325 206.183 297.743 206.163 291.92C206.163 291.92 206.163 291.92 206.163 291.9C206.163 291.717 206.142 291.554 206.142 291.391C205.857 288.723 203.617 286.687 200.95 286.687C198.12 286.687 195.799 288.947 195.738 291.798C195.738 291.818 195.738 291.859 195.738 291.9H154.038V281.434C154.038 272.638 157.214 264.127 162.997 257.489L201.113 213.712C203.923 213.611 206.163 211.31 206.163 208.5C206.163 208.072 206.101 207.645 206 207.217C206.101 206.81 206.163 206.382 206.163 205.955V125.1C206.163 103.374 217.158 83.6238 230.209 69.3098C236.745 62.1629 243.77 56.421 249.899 52.532C256.048 48.6634 261.627 46.9123 263.5 46.9123ZM221.8 104.25C218.929 104.25 216.588 106.591 216.588 109.462C216.588 112.333 218.929 114.675 221.8 114.675C224.671 114.675 227.013 112.333 227.013 109.462C227.013 106.591 224.671 104.25 221.8 104.25ZM242.65 104.25C239.779 104.25 237.438 106.591 237.438 109.462C237.438 112.333 239.779 114.675 242.65 114.675C245.521 114.675 247.863 112.333 247.863 109.462C247.863 106.591 245.521 104.25 242.65 104.25ZM263.5 104.25C260.629 104.25 258.288 106.591 258.288 109.462C258.288 112.333 260.629 114.675 263.5 114.675C266.371 114.675 268.713 112.333 268.713 109.462C268.713 106.591 266.371 104.25 263.5 104.25ZM284.35 104.25C281.479 104.25 279.138 106.591 279.138 109.462C279.138 112.333 281.479 114.675 284.35 114.675C287.221 114.675 289.563 112.333 289.563 109.462C289.563 106.591 287.221 104.25 284.35 104.25ZM305.2 104.25C302.329 104.25 299.988 106.591 299.988 109.462C299.988 112.333 302.329 114.675 305.2 114.675C308.071 114.675 310.413 112.333 310.413 109.462C310.413 106.591 308.071 104.25 305.2 104.25ZM263.5 145.95C243.403 145.95 227.013 162.341 227.013 182.437C227.013 202.534 243.403 218.925 263.5 218.925C283.597 218.925 299.988 202.534 299.988 182.437C299.988 162.341 283.597 145.95 263.5 145.95ZM263.5 156.375C277.957 156.375 289.563 167.981 289.563 182.437C289.563 196.894 277.957 208.5 263.5 208.5C249.044 208.5 237.438 196.894 237.438 182.437C237.438 167.981 249.044 156.375 263.5 156.375ZM200.95 224.137C198.079 224.137 195.738 226.479 195.738 229.35C195.738 232.221 198.079 234.562 200.95 234.562C203.821 234.562 206.163 232.221 206.163 229.35C206.163 226.479 203.821 224.137 200.95 224.137ZM326.05 224.137C323.179 224.137 320.838 226.479 320.838 229.35C320.838 232.221 323.179 234.562 326.05 234.562C328.921 234.562 331.263 232.221 331.263 229.35C331.263 226.479 328.921 224.137 326.05 224.137ZM200.95 244.987C198.079 244.987 195.738 247.329 195.738 250.2C195.738 253.071 198.079 255.412 200.95 255.412C203.821 255.412 206.163 253.071 206.163 250.2C206.163 247.329 203.821 244.987 200.95 244.987ZM326.05 244.987C323.179 244.987 320.838 247.329 320.838 250.2C320.838 253.071 323.179 255.412 326.05 255.412C328.921 255.412 331.263 253.071 331.263 250.2C331.263 247.329 328.921 244.987 326.05 244.987ZM200.95 265.837C198.079 265.837 195.738 268.179 195.738 271.05C195.738 273.921 198.079 276.262 200.95 276.262C203.821 276.262 206.163 273.921 206.163 271.05C206.163 268.179 203.821 265.837 200.95 265.837ZM326.05 265.837C323.179 265.837 320.838 268.179 320.838 271.05C320.838 273.921 323.179 276.262 326.05 276.262C328.921 276.262 331.263 273.921 331.263 271.05C331.263 268.179 328.921 265.837 326.05 265.837ZM242.65 302.325C239.779 302.325 237.438 304.666 237.438 307.537C237.438 310.408 239.779 312.75 242.65 312.75C245.521 312.75 247.863 310.408 247.863 307.537C247.863 304.666 245.521 302.325 242.65 302.325ZM263.5 302.325C260.629 302.325 258.288 304.666 258.288 307.537C258.288 310.408 260.629 312.75 263.5 312.75C266.371 312.75 268.713 310.408 268.713 307.537C268.713 304.666 266.371 302.325 263.5 302.325ZM284.35 302.325C281.479 302.325 279.138 304.666 279.138 307.537C279.138 310.408 281.479 312.75 284.35 312.75C287.221 312.75 289.563 310.408 289.563 307.537C289.563 304.666 287.221 302.325 284.35 302.325ZM237.763 338.812H253.788C256.068 348.952 263.5 361.393 263.5 361.393C263.5 361.393 270.932 348.952 273.212 338.812H289.237C286.569 360.904 267.857 375.463 263.5 378.7C259.143 375.463 240.431 360.904 237.763 338.812Z" fill="#1D262D"/>
</svg>
