<svg width="450" height="527" viewBox="0 0 450 527" fill="none" xmlns="http://www.w3.org/2000/svg">
<path fill-rule="evenodd" clip-rule="evenodd" d="M264 392.5H263L201.993 520.347C192.112 509.604 177.938 502.872 162.191 502.872C146.596 502.872 132.543 509.476 122.676 520.039C120.155 488.423 93.6999 463.553 61.4362 463.553C27.5059 463.553 0 491.059 0 524.989C0 558.92 27.5059 586.426 61.4362 586.426C80.4011 586.426 97.3591 577.832 108.629 564.327C112.232 590.689 134.84 611 162.191 611C192.05 611 216.255 586.795 216.255 556.936C216.255 553.579 215.949 550.294 215.364 547.106H320.36C319.774 550.294 319.468 553.579 319.468 556.936C319.468 586.795 343.673 611 373.532 611C398.024 611 418.713 594.713 425.358 572.38C435.981 581.154 449.603 586.426 464.457 586.426C498.388 586.426 525.894 558.92 525.894 524.989C525.894 491.059 498.388 463.553 464.457 463.553C434.816 463.553 410.077 484.545 404.297 512.473C395.564 506.42 384.962 502.872 373.532 502.872C356.567 502.872 341.428 510.686 331.516 522.911L264 392.5Z" fill="#1D262D"/>
<path d="M263.5 36.4873C257.554 36.4873 251.405 39.2972 244.36 43.7359C237.295 48.1543 229.659 54.4664 222.512 62.3055C208.198 77.9633 195.737 99.9128 195.737 125.1V204L155.137 250.648C147.705 259.179 143.612 270.113 143.612 281.434V297.112C143.612 299.983 145.954 302.325 148.825 302.325H198.975C201.337 306.316 204.757 309.533 209.135 311.223C207.425 314.012 206.162 317.087 206.162 320.569C206.162 330.586 214.388 338.812 224.406 338.812H227.318C230.413 370.495 260.608 390.062 260.608 390.062L263.5 391.996L266.391 390.062C266.391 390.062 296.587 370.495 299.682 338.812H302.594C312.611 338.812 320.837 330.586 320.837 320.569C320.837 317.087 319.575 314.012 317.865 311.223C322.242 309.533 325.663 306.316 328.025 302.325H378.175C381.046 302.325 383.387 299.983 383.387 297.112V281.434C383.387 270.113 379.295 259.179 371.863 250.648L331.262 204V125.1C331.262 99.9128 318.801 77.9633 304.487 62.3055C297.34 54.4664 289.705 48.1543 282.639 43.7359C275.594 39.2972 269.445 36.4873 263.5 36.4873ZM263.5 46.9123C265.373 46.9123 270.952 48.6634 277.101 52.532C283.23 56.421 290.255 62.1629 296.791 69.3098C309.842 83.6238 320.837 103.374 320.837 125.1V205.934C320.837 206.362 320.898 206.789 321 207.217C320.898 207.645 320.837 208.072 320.837 208.5C320.837 211.33 323.077 213.631 325.907 213.712L364.003 257.489C369.786 264.127 372.962 272.638 372.962 281.434V291.9H331.262C331.262 291.717 331.242 291.554 331.242 291.391C330.957 288.723 328.717 286.687 326.05 286.687C323.22 286.687 320.898 288.947 320.837 291.798C320.837 291.818 320.837 291.859 320.837 291.9C320.837 297.723 316.236 302.325 310.412 302.325H302.594C302.247 302.325 301.901 302.366 301.555 302.447C301.209 302.528 300.883 302.63 300.557 302.752C299.926 303.037 299.356 303.445 298.867 303.954C298.643 304.198 298.419 304.483 298.236 304.768C298.053 305.074 297.89 305.379 297.788 305.725C297.361 306.865 297.34 308.128 297.768 309.288C297.809 309.451 297.89 309.614 297.951 309.777C298.481 310.877 299.397 311.772 300.496 312.281C300.822 312.424 301.148 312.546 301.494 312.607C301.657 312.648 301.84 312.689 302.003 312.709C302.207 312.729 302.39 312.75 302.594 312.75C306.971 312.75 310.412 316.191 310.412 320.569C310.412 324.946 306.971 328.387 302.594 328.387H224.406C220.028 328.387 216.587 324.946 216.587 320.569C216.587 316.191 220.028 312.75 224.406 312.75C224.935 312.75 225.444 312.648 225.954 312.505C226.279 312.383 226.605 312.241 226.91 312.078C227.664 311.65 228.295 311.039 228.763 310.306C228.845 310.144 228.926 310.001 229.008 309.838C229.089 309.675 229.15 309.533 229.211 309.349C229.456 308.698 229.578 308.006 229.537 307.313C229.537 307.13 229.517 306.967 229.496 306.804C229.415 306.275 229.272 305.766 229.048 305.298C228.967 305.135 228.886 304.992 228.804 304.85C228.702 304.687 228.6 304.544 228.499 304.422C228.397 304.28 228.295 304.137 228.173 304.015C227.929 303.75 227.664 303.526 227.399 303.302C227.257 303.221 227.094 303.119 226.951 303.037C226.503 302.773 226.015 302.569 225.506 302.467C225.343 302.427 225.159 302.386 224.997 302.366C224.793 302.345 224.61 302.325 224.406 302.325H216.587C210.764 302.325 206.183 297.743 206.162 291.92C206.162 291.92 206.162 291.92 206.162 291.9C206.162 291.717 206.142 291.554 206.142 291.391C205.857 288.723 203.617 286.687 200.95 286.687C198.12 286.687 195.798 288.947 195.737 291.798C195.737 291.818 195.737 291.859 195.737 291.9H154.037V281.434C154.037 272.638 157.214 264.127 162.996 257.489L201.113 213.712C203.923 213.611 206.162 211.31 206.162 208.5C206.162 208.072 206.101 207.645 205.999 207.217C206.101 206.81 206.162 206.382 206.162 205.955V125.1C206.162 103.374 217.157 83.6238 230.209 69.3098C236.745 62.1629 243.77 56.421 249.898 52.532C256.048 48.6634 261.627 46.9123 263.5 46.9123ZM221.8 104.25C218.929 104.25 216.587 106.591 216.587 109.462C216.587 112.333 218.929 114.675 221.8 114.675C224.671 114.675 227.012 112.333 227.012 109.462C227.012 106.591 224.671 104.25 221.8 104.25ZM242.65 104.25C239.779 104.25 237.437 106.591 237.437 109.462C237.437 112.333 239.779 114.675 242.65 114.675C245.521 114.675 247.862 112.333 247.862 109.462C247.862 106.591 245.521 104.25 242.65 104.25ZM263.5 104.25C260.629 104.25 258.287 106.591 258.287 109.462C258.287 112.333 260.629 114.675 263.5 114.675C266.371 114.675 268.712 112.333 268.712 109.462C268.712 106.591 266.371 104.25 263.5 104.25ZM284.35 104.25C281.479 104.25 279.137 106.591 279.137 109.462C279.137 112.333 281.479 114.675 284.35 114.675C287.221 114.675 289.562 112.333 289.562 109.462C289.562 106.591 287.221 104.25 284.35 104.25ZM305.2 104.25C302.329 104.25 299.987 106.591 299.987 109.462C299.987 112.333 302.329 114.675 305.2 114.675C308.071 114.675 310.412 112.333 310.412 109.462C310.412 106.591 308.071 104.25 305.2 104.25ZM263.5 145.95C243.403 145.95 227.012 162.341 227.012 182.437C227.012 202.534 243.403 218.925 263.5 218.925C283.596 218.925 299.987 202.534 299.987 182.437C299.987 162.341 283.596 145.95 263.5 145.95ZM263.5 156.375C277.956 156.375 289.562 167.981 289.562 182.437C289.562 196.894 277.956 208.5 263.5 208.5C249.043 208.5 237.437 196.894 237.437 182.437C237.437 167.981 249.043 156.375 263.5 156.375ZM200.95 224.137C198.079 224.137 195.737 226.479 195.737 229.35C195.737 232.221 198.079 234.562 200.95 234.562C203.821 234.562 206.162 232.221 206.162 229.35C206.162 226.479 203.821 224.137 200.95 224.137ZM326.05 224.137C323.179 224.137 320.837 226.479 320.837 229.35C320.837 232.221 323.179 234.562 326.05 234.562C328.921 234.562 331.262 232.221 331.262 229.35C331.262 226.479 328.921 224.137 326.05 224.137ZM200.95 244.987C198.079 244.987 195.737 247.329 195.737 250.2C195.737 253.071 198.079 255.412 200.95 255.412C203.821 255.412 206.162 253.071 206.162 250.2C206.162 247.329 203.821 244.987 200.95 244.987ZM326.05 244.987C323.179 244.987 320.837 247.329 320.837 250.2C320.837 253.071 323.179 255.412 326.05 255.412C328.921 255.412 331.262 253.071 331.262 250.2C331.262 247.329 328.921 244.987 326.05 244.987ZM200.95 265.837C198.079 265.837 195.737 268.179 195.737 271.05C195.737 273.921 198.079 276.262 200.95 276.262C203.821 276.262 206.162 273.921 206.162 271.05C206.162 268.179 203.821 265.837 200.95 265.837ZM326.05 265.837C323.179 265.837 320.837 268.179 320.837 271.05C320.837 273.921 323.179 276.262 326.05 276.262C328.921 276.262 331.262 273.921 331.262 271.05C331.262 268.179 328.921 265.837 326.05 265.837ZM242.65 302.325C239.779 302.325 237.437 304.666 237.437 307.537C237.437 310.408 239.779 312.75 242.65 312.75C245.521 312.75 247.862 310.408 247.862 307.537C247.862 304.666 245.521 302.325 242.65 302.325ZM263.5 302.325C260.629 302.325 258.287 304.666 258.287 307.537C258.287 310.408 260.629 312.75 263.5 312.75C266.371 312.75 268.712 310.408 268.712 307.537C268.712 304.666 266.371 302.325 263.5 302.325ZM284.35 302.325C281.479 302.325 279.137 304.666 279.137 307.537C279.137 310.408 281.479 312.75 284.35 312.75C287.221 312.75 289.562 310.408 289.562 307.537C289.562 304.666 287.221 302.325 284.35 302.325ZM237.763 338.812H253.787C256.068 348.952 263.5 361.393 263.5 361.393C263.5 361.393 270.932 348.952 273.212 338.812H289.237C286.569 360.904 267.857 375.463 263.5 378.7C259.142 375.463 240.43 360.904 237.763 338.812Z" fill="#1D262D"/>
</svg>
